<svg width="640" height="640" viewBox="0 0 640 640" fill="none" xmlns="http://www.w3.org/2000/svg">
<path opacity="0.25" fill-rule="evenodd" clip-rule="evenodd" d="M401.728 539.386C304.692 567.213 38.1054 495.538 38.3083 331.339C38.8153 225.332 134.63 198.786 233.436 253.151C262.51 264.746 285.465 261.153 310.387 249.632C335.31 238.111 367.364 186.68 427.775 176.099C609.573 144.258 765.125 435.174 401.728 539.386Z" fill="url(#paint0_linear_847_1419)"/>
<path d="M177.482 405.09L177.167 405.677C175.797 408.292 176.538 401.069 179.595 397.45C182.276 394.275 185.125 391.19 188.234 388.444C191.088 385.923 194.277 383.73 197.52 381.718C201.025 379.545 204.683 377.573 208.425 375.838C212.577 373.913 216.818 372.109 221.166 370.699C227.315 368.704 233.564 366.988 239.842 365.439C241.487 365.033 241.671 364.444 241.724 363.189L241.739 362.745C241.852 358.87 242.155 354.982 242.697 351.143C243.428 345.978 245.686 341.479 249.622 337.973C253.031 334.938 256.717 332.298 260.825 330.227C268.129 326.546 275.801 323.857 283.779 322.267C291.265 320.775 298.861 319.81 306.433 318.796C308.733 318.488 311.117 318.734 313.459 318.824C314.983 318.882 315.638 318.354 315.949 316.784L316.326 314.881C316.708 312.978 317.112 311.079 317.631 309.213C320.04 300.568 321.938 291.857 321.266 282.799C320.839 277.035 320.496 271.257 319.792 265.524C319.304 261.548 318.407 257.621 317.618 253.683L317.384 252.502C317.208 251.59 316.811 251.559 316.145 252.101L316.053 252.178C313.677 254.219 310.405 253.267 309.541 250.186C309.02 248.331 308.763 246.263 310.23 244.689C310.936 243.932 312.117 243.236 313.11 243.197C317.063 243.041 321.042 242.934 324.98 243.222C330.283 243.61 335.565 244.322 340.842 245.002C345.779 245.638 350.712 246.33 355.62 247.161C358.439 247.638 361.199 248.457 363.993 249.09C366.406 249.636 368.821 250.184 371.258 250.599C371.573 250.652 372.276 249.97 372.37 249.535C372.988 246.69 373.515 243.825 374.098 240.972L374.548 238.835C374.694 238.165 374.659 236.955 376 237.29C377.196 237.589 377.494 238.257 377.176 239.521C376.498 242.215 375.948 244.941 375.369 247.661L375.017 249.291C374.61 251.145 375.246 251.871 377.658 252.32L377.869 252.358C379.095 252.569 380.321 252.804 381.532 253.09L382.438 253.314C383.312 253.541 383.662 253.407 383.822 252.524L383.844 252.393C384.206 249.964 384.701 247.556 385.164 245.143C385.458 243.615 385.827 242.101 386.093 240.568C386.301 239.372 385.213 238.469 383.366 238.16C381.996 237.931 380.575 237.821 379.281 237.363C375.294 235.951 371.093 235.694 366.993 235.542C357.629 235.196 351.657 235.299 342.282 235.372C339.062 235.397 335.85 235.93 332.628 236.118C331.039 236.211 327.041 235.367 327.765 234.008C328.346 232.918 332.697 232.022 333.44 231.014C334.806 229.158 336.349 227.393 337.443 225.386C338.656 223.163 339.736 220.785 340.363 218.343C341.508 213.88 342.289 209.323 343.198 204.8C343.756 202.021 344.486 199.253 344.746 196.444C345.033 193.341 344.981 190.192 344.839 187.074C344.797 186.151 344.245 185.121 342.96 184.78C341.223 184.318 341.001 183.115 341.021 180.398C341.03 179.294 342.547 178.098 343.929 177.981C350.474 177.429 339.929 177.83 346.418 178.653C351.574 179.307 370.352 180.204 375.489 181.008C375.817 181.059 376.122 181.242 376.444 181.344C377.786 181.772 382.573 182.589 383.676 182.866L383.793 182.896C386.333 183.607 388.947 184.048 391.51 184.684C395.997 185.797 400.467 186.973 404.944 188.126C405.107 188.168 405.261 188.242 405.421 188.297C411.713 190.468 418.043 192.538 424.279 194.859C426.68 195.752 428.99 197.038 431.099 198.496C432.118 199.201 432.593 200.707 433.283 201.868C434.979 204.721 436.869 207.483 438.293 210.468C440.605 215.316 441.469 220.406 440.429 225.833L440.033 227.88C439.14 232.422 438.12 236.921 436.189 241.14C434.586 244.645 432.793 248.113 430.65 251.305C429.055 253.682 426.456 254.863 423.37 253.47C419.499 251.721 415.575 250.085 411.645 248.469C405.738 246.04 399.815 243.646 393.876 241.295C392.818 240.876 391.691 240.606 390.566 240.375L390.085 240.279C389.382 240.14 388.797 240.06 388.598 241.289C387.955 245.259 387.077 249.194 386.177 253.117C385.943 254.137 386.345 254.441 387.133 254.636C387.97 254.842 388.845 254.927 389.652 255.212L398.433 258.313C417.771 265.178 454.86 278.676 460.834 284.372C469.424 292.561 477.211 345.146 456.242 370.699C443.459 386.277 442.697 380.223 442.06 380.356C473.83 364.308 413.11 316.865 416.785 317.494C423.376 318.623 426.297 323.31 427.977 328.834C430.072 335.726 431.735 342.775 433.142 349.844C434.614 357.234 438.559 381.042 439.258 385.508C439.772 388.796 439.854 392.15 440.268 395.457C440.812 399.815 441.716 404.138 442.054 408.508C442.429 413.339 442.646 418.207 442.531 423.05L442.496 424.26C442.387 427.326 441.426 435.649 436.863 448.517C432.572 460.605 416.016 481.638 411.98 488.779C411.72 489.239 409.035 490.953 408.345 489.665C407.889 488.814 214.152 524.086 177.482 405.09Z" fill="white"/>
<path fill-rule="evenodd" clip-rule="evenodd" d="M392.197 154.646C390.636 154.088 388.918 154.901 388.361 156.462C388.294 156.647 388.247 156.838 388.218 157.032L384.867 179.628L384.858 179.727C384.845 180.154 385.153 180.533 385.586 180.597C386.053 180.666 389.13 156.358 389.13 156.358L389.155 156.233C389.155 156.233 390.513 155.115 391.698 155.403C392.725 155.652 393.787 157.128 393.574 158.185C393.574 158.185 389.221 179.715 388.673 184.039C388.539 184.01 388.405 183.982 388.27 183.953C386.769 183.631 385.268 183.309 383.793 182.896L383.676 182.866C383.256 182.76 382.302 182.577 381.208 182.366C379.427 182.023 377.275 181.609 376.444 181.344C376.321 181.305 376.2 181.254 376.08 181.203C375.885 181.121 375.691 181.039 375.489 181.008C374.059 180.784 372.629 180.553 371.199 180.322L371.199 180.322L371.198 180.322L371.197 180.322L371.197 180.321L371.196 180.321L371.195 180.321L371.195 180.321C367.492 179.723 363.79 179.124 360.071 178.653C353.582 177.83 347.06 177.429 340.516 177.981C339.134 178.098 337.616 179.294 337.608 180.398C337.587 183.115 337.809 184.318 339.547 184.78C340.831 185.121 341.384 186.151 341.426 187.074C341.568 190.192 341.62 193.341 341.332 196.444C341.142 198.506 340.698 200.545 340.255 202.583L340.254 202.586L340.253 202.589L340.253 202.591L340.252 202.594L340.252 202.597L340.251 202.599L340.251 202.602C340.091 203.334 339.932 204.067 339.785 204.8C339.548 205.976 339.321 207.155 339.093 208.333L339.093 208.334C338.445 211.687 337.797 215.041 336.95 218.343C336.323 220.785 335.243 223.163 334.03 225.386C333.241 226.833 332.219 228.154 331.198 229.474L331.198 229.475L331.197 229.475L331.197 229.476L331.196 229.476L331.196 229.477L331.195 229.478L331.195 229.478C330.801 229.988 330.407 230.497 330.026 231.014C329.761 231.374 329.47 231.721 329.18 232.067C328.659 232.688 328.138 233.308 327.765 234.008C327.041 235.367 327.626 236.211 329.214 236.118C330.519 236.042 331.821 235.909 333.124 235.777C335.038 235.582 336.952 235.387 338.868 235.372L340.677 235.358C349.451 235.288 358.231 235.218 366.993 235.542C371.092 235.694 375.294 235.951 379.28 237.363C380.243 237.704 381.276 237.852 382.305 238C382.66 238.051 383.015 238.102 383.366 238.16C385.213 238.469 386.301 239.372 386.093 240.568C385.94 241.449 385.753 242.324 385.566 243.199L385.566 243.2L385.565 243.201C385.427 243.848 385.289 244.494 385.164 245.143L385.085 245.553C385.022 245.879 384.959 246.204 384.895 246.53L384.894 246.537L384.893 246.54L384.893 246.541C384.514 248.487 384.135 250.434 383.844 252.393L383.822 252.524C383.662 253.407 383.312 253.541 382.438 253.314L381.532 253.09C380.321 252.804 379.095 252.569 377.869 252.357L377.658 252.32C375.246 251.871 374.61 251.145 375.017 249.291L375.369 247.661C375.474 247.168 375.578 246.674 375.682 246.181C376.152 243.954 376.621 241.727 377.176 239.521C377.494 238.257 377.196 237.589 376 237.29C374.849 237.002 374.711 237.853 374.603 238.524C374.586 238.634 374.568 238.74 374.548 238.835L374.098 240.972C373.874 242.065 373.659 243.159 373.444 244.253L373.444 244.254L373.444 244.254L373.444 244.255L373.444 244.255L373.444 244.256L373.444 244.256L373.444 244.257C373.097 246.019 372.751 247.781 372.37 249.535C372.276 249.97 371.573 250.652 371.257 250.599C368.838 250.186 366.44 249.644 364.044 249.101L364.043 249.101L363.993 249.089C363.006 248.866 362.022 248.619 361.039 248.372C359.241 247.921 357.442 247.469 355.62 247.161C350.712 246.33 345.779 245.638 340.842 245.002C340.382 244.943 339.922 244.883 339.462 244.824L339.462 244.823C334.644 244.2 329.82 243.576 324.98 243.222C321.041 242.934 317.063 243.041 313.11 243.197C312.117 243.236 310.935 243.932 310.23 244.689C308.763 246.263 309.02 248.331 309.54 250.186C310.405 253.267 313.677 254.219 316.053 252.178L316.145 252.101C316.81 251.559 317.208 251.59 317.384 252.502L317.618 253.683C317.781 254.498 317.949 255.312 318.117 256.127C318.761 259.248 319.405 262.371 319.792 265.524C320.362 270.168 320.695 274.841 321.028 279.513V279.513L321.029 279.521L321.03 279.529L321.03 279.537L321.031 279.546L321.031 279.553L321.032 279.56C321.109 280.64 321.186 281.72 321.266 282.799C321.937 291.857 320.04 300.568 317.631 309.213C317.112 311.079 316.707 312.978 316.326 314.881L315.949 316.784C315.637 318.354 314.983 318.882 313.459 318.824C312.944 318.804 312.427 318.777 311.91 318.75C310.073 318.653 308.227 318.555 306.433 318.796C305.774 318.884 305.114 318.972 304.455 319.06L304.441 319.062L304.426 319.064C297.52 319.985 290.604 320.907 283.779 322.267C275.801 323.857 268.129 326.546 260.824 330.227C256.717 332.298 253.031 334.938 249.622 337.973C245.686 341.479 243.428 345.978 242.697 351.143C242.154 354.982 241.852 358.87 241.739 362.745L241.724 363.189C241.67 364.444 241.487 365.033 239.842 365.439C233.564 366.988 227.315 368.704 221.166 370.699C216.818 372.109 212.576 373.913 208.425 375.838C204.683 377.573 201.025 379.545 197.52 381.718C194.277 383.73 191.088 385.923 188.234 388.444C185.125 391.19 182.276 394.275 179.594 397.45C178.772 398.424 178.117 399.659 177.626 400.892C173.967 401.537 170.376 402.625 166.99 404.088C155.88 408.889 146.719 417.318 138.908 426.538C134.621 431.599 130.679 436.932 126.735 442.265L126.735 442.265L126.735 442.266C123.494 446.65 120.252 451.034 116.819 455.268C109.209 464.653 100.464 473.432 89.6869 478.935C82.1631 482.777 73.8957 484.901 65.7065 486.995C82.1084 488.759 98.2464 481.267 111.345 471.275C118.789 465.598 125.533 459.103 132.28 452.605L132.281 452.604C137.406 447.668 142.533 442.73 147.97 438.148C150.155 436.307 152.858 434.409 155.632 435.109C154.191 442.546 153.912 450.299 155.725 457.655C157.538 465.011 161.557 471.956 167.617 476.53C162.052 469.852 158.352 461.647 157.035 453.067C156.247 447.937 156.32 442.571 158.125 437.703C159.93 432.836 163.633 428.517 168.532 426.752C167.51 435.259 167.183 443.949 168.929 452.338C170.675 460.727 174.639 468.847 181.125 474.474C172.066 463.145 168.1 447.921 170.487 433.634C170.876 431.304 171.456 428.932 172.848 427.02C174.24 425.108 176.613 423.745 178.949 424.148C172.226 438.704 177.278 457.681 190.357 467.007C182.251 458.966 177.531 447.493 178.213 436.118C178.434 432.438 179.272 428.632 181.631 425.791C183.99 422.95 188.179 421.382 191.543 422.919C186.818 428.974 186.553 437.36 187.596 444.958C188.516 451.65 191.271 459.294 197.792 461.144C189.497 454.338 186.733 441.663 191.444 432.041C193.141 428.576 196.301 425.242 200.164 425.46C202.9 425.615 205.23 427.545 206.871 429.732C207.642 430.76 208.308 431.861 208.973 432.961L208.974 432.961C209.725 434.203 210.475 435.443 211.376 436.579C215.233 428.193 215.507 417.566 209.752 410.34C207.704 407.768 205.012 405.755 202.104 404.209C198.27 402.169 194.096 400.96 189.806 400.469C190.01 400.316 190.215 400.163 190.421 400.011C196.941 395.181 204.134 391.471 211.381 387.915C215.634 385.828 220.11 384.163 224.568 382.532C228.563 381.069 232.633 379.78 236.735 378.65C244.089 376.623 251.606 375.487 259.216 374.922C260.824 374.803 262.427 374.615 264.029 374.428C265.741 374.227 267.453 374.027 269.171 373.909C271.502 373.751 273.837 373.645 276.172 373.538L276.173 373.538C279.765 373.375 283.357 373.212 286.93 372.857C290.917 372.461 294.879 371.798 298.84 371.135C300.199 370.908 301.558 370.68 302.918 370.464C305.917 369.986 308.905 369.438 311.977 368.874L311.977 368.874L311.977 368.874L311.978 368.874L311.978 368.874L311.978 368.874L311.978 368.874L311.979 368.874L312.95 368.695C313.317 368.634 313.668 368.592 314.007 368.553L314.008 368.553C314.487 368.496 314.942 368.443 315.386 368.338C316.537 368.066 317.689 367.796 318.84 367.525C323.415 366.45 327.991 365.375 332.544 364.212C337.712 362.892 342.858 361.473 347.981 359.986C350.044 359.387 352.091 358.734 354.138 358.081L354.14 358.081L354.14 358.081C356.604 357.295 359.067 356.51 361.557 355.818C366.26 354.513 370.262 351.95 374.216 349.256C374.489 349.07 374.779 348.524 374.691 348.279C374.545 347.873 374.134 347.342 373.769 347.286C373.198 347.198 372.422 347.27 371.993 347.607C367.304 351.283 361.838 353.386 356.247 355.037C346.732 357.846 337.166 360.51 327.535 362.884C321.484 364.375 315.36 365.57 309.238 366.764L309.237 366.765C307.546 367.094 305.856 367.424 304.167 367.76C301.179 368.355 298.157 368.788 295.139 369.22L294.707 369.282C293.705 369.426 292.704 369.577 291.703 369.728L291.699 369.728C288.463 370.216 285.225 370.704 281.969 370.951C278.758 371.195 275.539 371.338 272.32 371.481C268.312 371.66 264.304 371.838 260.314 372.211C252.12 372.975 243.897 373.874 235.972 376.23C229.644 378.111 223.304 380.079 217.214 382.6C212.196 384.677 207.36 387.205 202.531 389.729L202.526 389.731C201.519 390.258 200.512 390.784 199.504 391.306C194.694 393.796 190.129 396.706 186.001 400.22C184.177 400.187 182.344 400.276 180.518 400.478C182.201 398.268 184.079 396.206 185.991 394.183L186.901 393.224C192.469 387.378 199.299 383.309 206.407 379.715L207.703 379.066C210.157 377.849 212.707 376.826 215.257 375.802L215.258 375.802C216.521 375.295 217.784 374.788 219.036 374.257L219.944 373.879C226.92 371.031 234.203 369.283 241.552 367.662C250.425 365.706 259.386 364.347 268.364 363.085L274.138 362.281C276.916 361.896 279.706 361.584 282.495 361.271H282.495C289.228 360.516 295.962 359.761 302.544 357.991C305.28 357.255 308.021 356.539 310.762 355.822L310.768 355.82L310.77 355.82C314.105 354.948 317.44 354.076 320.766 353.17C323.976 352.295 327.183 351.377 330.322 350.279C332.79 349.416 335.22 348.443 337.649 347.47L337.653 347.469C338.694 347.052 339.735 346.635 340.778 346.227C342.573 345.526 344.374 344.842 346.176 344.158C350.237 342.617 354.298 341.076 358.272 339.334C363.442 337.068 368.549 334.658 373.656 332.247L373.656 332.247L373.656 332.247L373.656 332.247L373.657 332.247L373.657 332.247L373.657 332.247L373.658 332.246C376.293 331.003 378.928 329.759 381.572 328.536C383.177 327.792 384.81 327.082 386.484 326.517C389.963 325.343 393.454 324.209 396.946 323.075L396.947 323.075L396.949 323.074L396.95 323.074L396.951 323.073L396.953 323.073L396.954 323.073L396.955 323.072C398.495 322.572 400.036 322.072 401.575 321.568L402.51 321.263C405.784 320.204 409.098 319.246 412.57 319.381C416.147 319.52 419.654 319.934 422.205 323.104C424.331 325.745 425.443 328.799 426.342 331.924L426.583 332.778C427.71 336.851 428.579 341.001 429.423 345.146L430.339 349.648C431.405 354.901 432.447 360.161 433.32 365.447C433.721 367.877 433.954 370.334 434.188 372.791C434.394 374.957 434.6 377.123 434.921 379.272C435.135 380.703 435.536 382.104 435.939 383.507L435.939 383.508L435.939 383.508L435.939 383.509L435.939 383.509L435.939 383.509L435.939 383.51L435.939 383.51L435.939 383.51C436.287 384.722 436.634 385.934 436.861 387.167C437.113 388.538 437.209 389.936 437.305 391.336V391.336C437.37 392.28 437.434 393.224 437.547 394.161C437.746 395.812 437.975 397.461 438.205 399.109C438.567 401.704 438.928 404.299 439.168 406.905L439.236 407.631C439.756 413.254 440.271 418.826 439.484 424.576C438.915 428.727 437.987 432.763 437.059 436.802L437.058 436.803C436.73 438.232 436.401 439.661 436.088 441.096C436.043 441.304 435.897 441.49 435.751 441.677C435.683 441.763 435.615 441.85 435.558 441.939C435.549 441.823 435.532 441.707 435.516 441.59C435.481 441.339 435.446 441.089 435.486 440.851C436.521 434.761 435.692 428.769 434.005 422.963C433.038 419.634 431.76 416.395 430.481 413.156C429.888 411.655 429.296 410.153 428.734 408.643C428.189 407.179 427.64 405.715 427.092 404.252L427.09 404.247L427.088 404.243L427.087 404.24L427.086 404.237L427.085 404.234L427.084 404.232C425.581 400.226 424.079 396.22 422.663 392.184C420.658 386.473 419.711 380.556 419.955 374.499L419.961 374.335C420.074 371.302 420.107 364.294 419.482 364.306C419.01 364.315 418.215 365.002 418.145 365.472C417.799 367.807 417.563 370.166 417.442 372.525C417.118 378.816 417.755 384.959 419.661 391.036L419.882 391.742C421.881 398.123 423.876 404.492 426.773 410.663C426.833 410.822 426.891 410.978 426.948 411.131L427.743 413.306C428.109 414.297 428.488 415.281 428.868 416.266C430.404 420.255 431.938 424.236 432.546 428.559C433.3 433.922 433.794 439.196 432.389 444.523C432.211 445.197 432.297 445.939 432.383 446.683L432.383 446.683C432.426 447.053 432.469 447.423 432.479 447.786L432.487 447.964L432.492 448.043L432.497 448.119C432.522 448.492 432.548 448.875 432.416 449.185C431.088 452.307 412.144 481.877 408.945 486.311L408.648 486.717C408.302 487.209 408.108 487.626 408.026 488.002C402.343 490.764 396.153 492.35 390.02 493.915C402.863 495.294 415.5 489.439 425.757 481.633C431.586 477.197 436.868 472.122 442.151 467.045L442.152 467.044L442.152 467.044L442.153 467.044L442.153 467.043C446.166 463.187 450.181 459.329 454.437 455.749C456.148 454.311 458.265 452.828 460.437 453.375C459.309 459.186 459.091 465.244 460.51 470.991C461.929 476.739 465.077 482.164 469.822 485.739C465.465 480.521 462.567 474.11 461.535 467.406C460.919 463.398 460.975 459.206 462.389 455.402C463.802 451.599 466.703 448.225 470.538 446.846C469.738 453.492 469.482 460.282 470.849 466.837C472.216 473.391 475.321 479.736 480.4 484.132C473.306 475.281 470.201 463.386 472.069 452.223C472.374 450.403 472.828 448.549 473.918 447.055C475.008 445.561 476.866 444.496 478.696 444.811C473.431 456.184 477.387 471.012 487.629 478.298C481.282 472.015 477.585 463.052 478.12 454.164C478.292 451.288 478.949 448.314 480.796 446.095C482.643 443.875 485.924 442.65 488.558 443.851C484.858 448.582 484.65 455.134 485.467 461.07C486.187 466.299 488.345 472.271 493.451 473.717C486.956 468.399 484.791 458.496 488.48 450.978C489.809 448.271 492.283 445.666 495.308 445.836C497.451 445.957 499.275 447.465 500.56 449.174C501.164 449.977 501.686 450.837 502.207 451.697C502.795 452.667 503.383 453.636 504.088 454.524C507.109 447.972 507.323 439.669 502.817 434.023C501.213 432.013 499.104 430.44 496.828 429.232C488.462 424.792 478.032 425.386 469.331 429.137C460.631 432.889 453.458 439.475 447.341 446.679C443.985 450.632 440.898 454.798 437.81 458.965L437.81 458.966L437.809 458.966L437.809 458.966L437.809 458.967L437.809 458.967L437.809 458.967L437.808 458.967L437.808 458.967C435.27 462.392 432.732 465.818 430.044 469.126C425.69 474.483 420.862 479.587 415.286 483.626C416.37 482.031 417.608 480.248 418.934 478.338L418.935 478.337L418.938 478.333L418.938 478.333L418.938 478.332L418.939 478.332C425.401 469.028 433.952 456.715 436.863 448.517C441.426 435.649 442.387 427.326 442.496 424.26L442.531 423.05C442.646 418.207 442.428 413.339 442.054 408.508C441.848 405.839 441.43 403.189 441.012 400.537L441.012 400.536C440.746 398.845 440.479 397.154 440.267 395.457C440.088 394.024 439.971 392.582 439.854 391.14L439.854 391.138C439.702 389.254 439.549 387.37 439.257 385.508C438.883 383.11 438.405 380.729 437.927 378.348L437.926 378.347L437.926 378.344C437.514 376.291 437.102 374.237 436.755 372.173C436.283 369.357 435.862 366.531 435.44 363.706L435.44 363.705L435.44 363.704L435.44 363.703L435.439 363.702L435.439 363.701L435.439 363.7L435.439 363.699C434.747 359.066 434.056 354.433 433.142 349.844C431.735 342.775 430.072 335.726 427.977 328.834C426.297 323.31 423.376 318.623 416.785 317.494C413.11 316.865 409.539 316.808 406.003 317.696C397.167 319.915 388.48 322.71 380.15 326.363C375.804 328.269 371.501 330.272 367.197 332.275C358.492 336.327 349.787 340.378 340.727 343.628C339.047 344.231 337.383 344.88 335.719 345.53C334.162 346.138 332.605 346.746 331.033 347.316C330.109 347.651 329.009 348.008 328.109 347.811C326.495 347.457 324.898 347.024 323.301 346.591C321.428 346.083 319.555 345.575 317.656 345.196C315.332 344.731 312.967 344.468 310.603 344.204L310.603 344.204C309.708 344.104 308.814 344.005 307.922 343.894C307.615 343.856 307.3 343.883 306.985 343.909C306.839 343.922 306.693 343.934 306.548 343.94C306.603 343.781 306.646 343.613 306.689 343.444C306.782 343.081 306.874 342.718 307.087 342.451C310.328 338.385 312.496 333.721 314.562 329.026L315.099 327.801C316.013 325.711 316.663 323.505 317.313 321.3C317.561 320.46 317.808 319.62 318.071 318.787C318.48 317.485 318.838 316.163 319.15 314.834C319.426 313.661 319.697 312.487 319.965 311.312L321.57 304.263C321.772 303.382 322.003 302.505 322.234 301.628C322.72 299.778 323.207 297.929 323.426 296.048C324.274 288.775 324.191 281.456 323.485 274.182C322.747 266.566 321.957 258.925 319.801 251.547L319.759 251.395C319.446 250.173 319.982 250.024 320.835 249.931L321.266 249.886C324.621 249.341 342.346 248.388 396.183 262.965C438.002 275.081 450.764 280.867 457.033 287.35C471.246 305.586 473.83 364.308 442.06 380.356C442.152 380.337 442.247 380.447 442.381 380.603C443.171 381.524 445.312 384.018 456.242 370.699C477.211 345.146 469.424 292.561 460.834 284.372C454.859 278.676 417.771 265.178 398.433 258.313L389.652 255.212C389.149 255.035 388.62 254.935 388.09 254.835C387.769 254.774 387.449 254.714 387.133 254.636C386.345 254.441 385.943 254.137 386.177 253.117C387.077 249.194 387.954 245.259 388.598 241.289C388.797 240.06 389.382 240.14 390.085 240.279L390.566 240.375C391.69 240.606 392.818 240.876 393.876 241.295C399.815 243.646 405.738 246.04 411.645 248.469C415.575 250.085 419.499 251.721 423.37 253.47C426.456 254.863 429.054 253.682 430.65 251.305C432.793 248.113 434.586 244.645 436.189 241.14C438.12 236.921 439.14 232.422 440.033 227.88L440.429 225.833C441.469 220.406 440.605 215.316 438.293 210.467C437.287 208.36 436.049 206.363 434.81 204.366C434.296 203.536 433.781 202.706 433.283 201.868C433.082 201.531 432.9 201.164 432.717 200.797L432.717 200.796L432.716 200.795C432.27 199.898 431.821 198.996 431.099 198.496C428.99 197.038 426.679 195.752 424.279 194.859C419.827 193.202 415.328 191.673 410.828 190.144L410.827 190.143C409.024 189.531 407.221 188.918 405.421 188.297C405.361 188.276 405.303 188.253 405.244 188.23L405.244 188.23L405.244 188.23C405.145 188.191 405.046 188.152 404.944 188.126C403.73 187.813 402.516 187.499 401.303 187.184L401.302 187.184L401.302 187.184L401.301 187.184L401.301 187.184L401.285 187.18C398.03 186.337 394.774 185.493 391.51 184.684C390.88 184.527 390.247 184.383 389.612 184.243C389.626 184.204 389.638 184.164 389.646 184.122L394.694 159.064L394.727 158.881C395.005 157.055 393.953 155.273 392.197 154.646ZM176.977 405.997C176.767 406.3 176.626 406.3 176.557 406.077C166.898 407.984 158.064 413.252 150.702 419.798C142.623 426.981 136.101 435.685 129.632 444.32L129.571 444.401C123.082 453.063 116.518 461.783 108.373 468.944C108.666 469.637 109.724 469.284 110.325 468.824C117.261 463.523 123.437 457.361 129.618 451.195C133.748 447.075 137.88 442.953 142.241 439.084C153.13 429.427 166.195 421.106 180.778 420.094C185.302 419.78 189.847 420.181 194.345 420.754C197.058 421.099 199.795 421.516 202.321 422.556C206.225 424.163 209.472 427.277 211.22 431.089C212.242 428.439 212.82 425.538 212.264 422.755C211.781 420.331 210.466 418.139 208.899 416.216C203.245 409.278 194.238 405.651 185.179 405.353C185.075 405.552 184.977 405.756 184.886 405.966C184.742 406.297 184.311 406.503 183.879 406.708C183.679 406.803 183.48 406.898 183.309 407.006C183.239 406.736 183.128 406.449 183.017 406.162C182.911 405.888 182.804 405.613 182.734 405.354C181.652 405.39 180.573 405.474 179.504 405.605C178.656 405.709 177.814 405.84 176.977 405.997ZM312.554 251.868C314.262 252.49 315.627 250.593 316.249 248.885C316.87 247.178 315.745 245.083 314.037 244.462C312.329 243.84 310.833 245.13 310.211 246.838C309.589 248.546 310.847 251.247 312.554 251.868ZM331.79 232.844C331.649 233 331.552 233.198 331.456 233.395L331.43 233.448L331.408 233.492C331.379 233.55 331.35 233.607 331.318 233.663C331.41 233.667 331.502 233.674 331.594 233.682C331.796 233.699 331.997 233.716 332.194 233.691C332.51 233.651 332.825 233.595 333.139 233.539C333.599 233.457 334.059 233.375 334.523 233.343C344.089 232.682 353.653 232.409 363.247 232.882C369.294 233.18 375.284 233.82 381.136 235.259C386.635 236.611 392.056 238.321 397.437 240.097C400.422 241.082 403.33 242.307 406.235 243.53C406.82 243.776 407.405 244.023 407.991 244.267C411.132 245.578 414.242 246.969 417.337 248.388C418.644 248.987 419.915 249.666 421.185 250.345L421.186 250.345C421.485 250.505 421.785 250.665 422.084 250.824C424.58 252.146 427.429 251.736 428.784 249.519C430.49 246.73 432.08 243.843 433.423 240.864C435.778 235.639 437.082 230.081 438.002 224.437C438.473 221.544 438.498 218.617 437.403 215.888C436.112 212.671 434.611 209.526 433 206.456C432.199 204.929 431.164 203.365 429.839 202.318C428.682 201.404 427.187 200.865 425.73 200.37L425.061 200.144C417.151 197.453 409.229 194.798 401.286 192.207C398.425 191.274 395.52 190.442 392.588 189.769C388.04 188.723 383.465 187.786 378.878 186.928C374.7 186.147 370.505 185.427 366.292 184.872C361.128 184.192 355.941 183.664 350.755 183.168C348.915 182.992 347.056 182.983 345.202 182.975C344.916 182.974 344.63 182.972 344.345 182.971L344.225 182.966C344.173 182.963 344.117 182.958 344.06 182.953L344.06 182.953C343.527 182.909 342.861 182.853 343.154 183.8L343.196 183.926C344.949 188.746 344.443 193.696 343.792 198.574C343.431 201.274 342.86 203.946 342.288 206.618L342.288 206.619L342.288 206.621L342.287 206.623L342.287 206.625L342.287 206.626L342.286 206.628L342.286 206.63C342.012 207.909 341.739 209.188 341.488 210.471L341.263 211.662C340.339 216.738 338.833 221.622 336.618 226.272C336.229 227.087 335.726 227.848 335.183 228.669L335.183 228.669C334.814 229.228 334.427 229.814 334.045 230.463L332.533 232.043C332.283 232.307 332.035 232.574 331.79 232.844ZM313.98 323.1C314.562 321.618 314.141 320.996 312.554 321.007C312.127 321.01 311.698 321.01 311.269 321.01C309.404 321.011 307.534 321.011 305.694 321.236C303.638 321.486 301.593 321.83 299.548 322.174L299.548 322.174L299.548 322.174C297.822 322.464 296.096 322.754 294.363 322.988C286.381 324.067 278.555 325.755 271.024 328.665L269.882 329.112C262.858 331.89 256.177 335.18 250.694 340.688C247.696 343.699 246.029 347.28 245.275 351.174C244.804 353.603 244.69 356.099 244.576 358.598V358.598V358.598V358.599V358.599V358.599V358.599V358.599C244.503 360.193 244.43 361.789 244.264 363.37C244.137 364.58 244.608 364.482 245.206 364.357L245.207 364.357C245.264 364.345 245.322 364.333 245.381 364.322L245.457 364.308C247.443 363.964 249.428 363.614 251.414 363.263L251.416 363.262C255.526 362.536 259.635 361.81 263.756 361.149C266.516 360.706 269.293 360.361 272.071 360.029L275.405 359.633C275.476 359.624 275.544 359.618 275.61 359.611C276.094 359.564 276.385 359.536 276.095 358.891L276.045 358.786C274.329 355.306 274.819 351.694 275.788 348.195C276.646 345.093 277.834 342.066 279.084 339.093C280.113 336.645 281.53 334.276 283.926 332.988C287.277 331.187 290.725 329.506 294.278 328.161C299.079 326.343 304.188 325.85 309.264 325.36C309.534 325.334 309.803 325.308 310.073 325.281C310.5 325.24 310.965 325.591 311.431 325.942C311.646 326.104 311.862 326.267 312.074 326.391C311.918 326.515 311.765 326.644 311.612 326.773L311.612 326.773C311.239 327.086 310.867 327.4 310.454 327.645C310.272 327.754 310.024 327.748 309.774 327.742C309.64 327.739 309.505 327.736 309.379 327.751L308.088 327.903C301.211 328.737 294.437 329.996 288.236 333.33C286.708 334.151 285.054 335.114 284.056 336.457C282.413 338.669 281.135 341.186 279.942 343.688C279.513 344.589 279.267 345.574 279.02 346.562C278.889 347.086 278.758 347.611 278.6 348.124L278.455 348.565C277.573 351.087 277.436 353.652 277.846 356.251C278.174 358.328 279.391 359.374 280.93 359.112C282.179 358.9 283.431 358.697 284.682 358.494C286.379 358.219 288.076 357.944 289.769 357.645C291.056 357.417 292.346 357.198 293.636 356.979C297.266 356.362 300.898 355.745 304.484 354.934C309.222 353.861 313.926 352.641 318.63 351.42L318.631 351.42L318.631 351.42L318.633 351.419L318.636 351.419C320.461 350.945 322.287 350.471 324.115 350.006C324.273 349.966 324.416 349.868 324.559 349.771C324.626 349.726 324.693 349.68 324.761 349.64C324.712 349.573 324.666 349.493 324.621 349.412C324.521 349.237 324.422 349.063 324.284 349.022C323.592 348.819 322.884 348.673 322.176 348.526C322.039 348.498 321.903 348.47 321.766 348.441C320.987 348.278 320.209 348.099 319.432 347.921C317.641 347.51 315.851 347.1 314.037 346.869C309.767 346.326 305.473 345.937 301.178 345.642L299.505 345.532C293.932 345.182 288.369 345.086 282.945 347.027L282.349 347.257C281.648 347.512 280.785 347.693 280.464 346.659C280.117 345.542 281.188 344.994 282.107 344.591C282.29 344.51 282.486 344.456 282.681 344.406L282.877 344.355C288.623 342.841 294.426 342.501 300.306 343.264L300.959 343.353C302.175 343.527 303.436 343.442 304.222 342.091C305.193 340.418 306.18 338.755 307.183 337.063L307.186 337.058L307.188 337.056C308.36 335.079 309.554 333.065 310.775 330.954C311.09 330.184 311.408 329.415 311.726 328.646L311.728 328.641C312.49 326.798 313.252 324.956 313.98 323.1ZM391.844 186.612C388.62 185.857 385.381 185.165 382.14 184.487L379.708 183.98C378.94 183.821 378.172 183.657 377.404 183.494C374.557 182.889 371.708 182.283 368.835 181.85C364.515 181.2 360.166 180.661 355.81 180.353C352.701 180.134 349.579 180.104 346.458 180.075L346.458 180.075L346.457 180.075L346.457 180.075L346.457 180.075L346.456 180.075L346.456 180.075L346.455 180.075C345.353 180.064 344.252 180.054 343.15 180.035C342.969 180.032 342.786 180.15 342.602 180.267C342.517 180.322 342.432 180.377 342.346 180.42C342.435 180.465 342.522 180.523 342.61 180.581C342.8 180.705 342.989 180.83 343.183 180.836C343.884 180.862 344.586 180.861 345.288 180.86C346.412 180.859 347.536 180.858 348.65 180.963C353.781 181.445 358.908 181.988 364.026 182.597C367.337 182.992 370.643 183.465 373.925 184.048C376.422 184.492 378.908 185 381.391 185.521L385.115 186.307C388.432 187.005 391.75 187.704 395.046 188.493C397.645 189.116 400.226 189.831 402.79 190.588C406.917 191.806 411.042 193.037 415.132 194.37C416.991 194.976 418.826 195.658 420.66 196.339L420.661 196.339L420.662 196.34C421.695 196.724 422.729 197.107 423.766 197.478C423.903 197.526 424.07 197.493 424.236 197.459C424.314 197.443 424.391 197.428 424.465 197.42C424.422 197.363 424.382 197.296 424.342 197.23C424.257 197.086 424.171 196.943 424.047 196.89C423.43 196.629 422.816 196.361 422.201 196.093L422.201 196.093C420.428 195.321 418.655 194.548 416.83 193.928C415.459 193.462 414.051 193.109 412.642 192.755L412.642 192.755C411.563 192.485 410.483 192.214 409.42 191.893C407.102 191.192 404.803 190.427 402.375 189.62C401.518 189.335 400.646 189.045 399.751 188.751C398.937 188.528 398.123 188.298 397.31 188.069C395.495 187.555 393.679 187.042 391.844 186.612ZM404.764 368.284L404.762 368.289L404.759 368.293L404.755 368.302L404.732 368.347C403.801 370.207 402.86 372.086 401.905 374.012C401.73 374.361 401.556 374.68 401.39 374.986C401.142 375.442 400.911 375.867 400.72 376.309C399.959 378.07 399.209 379.835 398.459 381.601C397.57 383.693 396.681 385.785 395.775 387.87C394.552 390.684 393.303 393.487 391.998 396.263C390.056 400.394 388.076 404.507 386.069 408.607C384.357 412.104 382.607 415.582 380.832 419.047C378.869 422.881 376.888 426.707 374.861 430.507C372.338 435.238 369.805 439.965 367.191 444.646C365.439 447.783 363.636 450.892 361.833 454C361.016 455.409 360.198 456.818 359.386 458.23C358.668 459.477 357.954 460.725 357.24 461.973C355.677 464.703 354.114 467.432 352.521 470.145C352.17 470.743 351.822 471.343 351.473 471.943C350.008 474.464 348.542 476.989 346.877 479.372C345.829 480.872 344.623 482.261 343.416 483.651L343.416 483.651L343.415 483.651L343.415 483.652L343.415 483.652L343.414 483.652L343.414 483.653C342.638 484.546 341.862 485.44 341.126 486.364C340.809 486.763 340.683 487.899 340.852 487.991C340.926 488.032 341.001 488.076 341.077 488.122L341.077 488.122C341.596 488.433 342.172 488.778 342.855 487.953C343.543 487.121 344.303 486.341 345.062 485.562C346.164 484.431 347.264 483.303 348.14 482.018C350.286 478.871 352.221 475.577 354.153 472.285C354.558 471.596 354.962 470.907 355.369 470.219C356.647 468.056 357.894 465.875 359.141 463.694C360.169 461.896 361.197 460.098 362.242 458.31C363.066 456.9 363.915 455.505 364.763 454.11C365.624 452.693 366.485 451.277 367.321 449.846C369.15 446.714 370.958 443.567 372.697 440.384C373.407 439.085 374.071 437.762 374.734 436.439L374.735 436.438L374.736 436.436L374.736 436.435L374.737 436.434L374.738 436.432L374.739 436.431C375.308 435.296 375.877 434.162 376.475 433.043C377.227 431.637 378.001 430.243 378.775 428.849C379.795 427.013 380.815 425.176 381.783 423.313C382.619 421.705 383.398 420.068 384.178 418.43C384.822 417.077 385.467 415.724 386.143 414.387C386.964 412.763 387.811 411.152 388.657 409.542L388.66 409.537L388.66 409.536L388.661 409.534L388.662 409.533L388.663 409.531L388.663 409.53L388.664 409.529C389.846 407.281 391.027 405.033 392.139 402.751C393.839 399.26 395.416 395.708 396.993 392.158C397.17 391.759 397.348 391.36 397.525 390.961C398.296 389.228 399.042 387.485 399.788 385.741L399.788 385.74L399.79 385.736L399.791 385.733L399.792 385.73L399.794 385.727L399.795 385.724L399.796 385.722C400.563 383.928 401.331 382.135 402.125 380.353C403.839 376.509 405.571 372.671 407.388 368.876C408.352 366.862 409.366 364.873 410.381 362.883L410.382 362.882L410.382 362.88L410.383 362.879L410.383 362.878L410.384 362.876L410.385 362.875L410.385 362.874C411.112 361.447 411.839 360.021 412.548 358.586C413.378 356.905 414.19 355.216 415.002 353.526L415.002 353.524L415.003 353.523L415.003 353.522L415.004 353.522L415.004 353.521L415.004 353.52L415.005 353.519C416.518 350.37 418.031 347.221 419.66 344.132C420.003 343.481 420.329 342.818 420.655 342.155L420.656 342.154C421.873 339.681 423.096 337.195 425.222 335.269C425.647 334.884 425.731 333.975 425.704 333.319C425.694 333.068 424.894 332.613 424.518 332.671C424.015 332.749 423.421 333.131 423.133 333.561C422.264 334.861 421.431 336.187 420.599 337.512L420.598 337.514L420.597 337.515L420.595 337.517L420.594 337.519L420.593 337.521L420.591 337.524C420.021 338.432 419.45 339.341 418.867 340.241C415.36 345.663 412.666 351.495 410.096 357.396C409.366 359.072 408.547 360.71 407.728 362.348C407.551 362.702 407.374 363.057 407.197 363.412C406.394 365.028 405.587 366.641 404.771 368.27L404.764 368.284ZM392.42 353.389C391.649 357.073 390.855 360.656 389.992 364.223C389.662 365.585 389.25 366.927 388.838 368.269C388.75 368.556 388.662 368.842 388.575 369.129C388.423 369.629 388.273 370.13 388.122 370.631L388.117 370.648L388.117 370.648L388.117 370.648L388.117 370.649L388.117 370.649L388.117 370.65C387.586 372.42 387.054 374.19 386.449 375.935C383.44 384.615 380.395 393.283 377.348 401.95C376.755 403.638 376.138 405.317 375.521 406.996C375.238 407.766 374.955 408.536 374.675 409.307C374.2 410.612 373.74 411.923 373.28 413.235L373.28 413.235L373.28 413.236L373.28 413.236L373.279 413.236L373.279 413.237C372.235 416.214 371.191 419.192 369.97 422.094C368.565 425.434 366.98 428.698 365.395 431.961L365.394 431.962L365.394 431.963L365.393 431.964L365.393 431.965L365.393 431.966L365.39 431.971L365.388 431.977L365.385 431.982C364.831 433.122 364.277 434.263 363.731 435.406C362.352 438.293 360.945 441.167 359.514 444.029C358.667 445.723 357.809 447.412 356.951 449.1L356.946 449.111C355.651 451.657 354.357 454.204 353.102 456.77C352.507 457.985 351.962 459.226 351.418 460.466L351.417 460.467L351.417 460.468L351.416 460.47L351.416 460.471L351.415 460.472L351.415 460.473C350.771 461.938 350.128 463.403 349.403 464.826C348.021 467.538 346.505 470.183 344.989 472.825L344.988 472.828L344.811 473.137L344.507 473.667C342.896 476.481 341.261 479.283 339.549 482.037C338.752 483.319 337.797 484.515 336.814 485.664C336.584 485.933 336.211 486.078 335.837 486.223C335.666 486.289 335.495 486.355 335.338 486.433C335.307 486.241 335.249 486.036 335.191 485.831L335.191 485.831C335.065 485.384 334.939 484.938 335.09 484.627C335.979 482.809 337.019 481.063 338.061 479.325C338.704 478.253 339.367 477.193 340.03 476.133L340.03 476.132L340.031 476.132L340.031 476.131L340.031 476.131L340.032 476.129C341.168 474.313 342.304 472.497 343.335 470.624C345.492 466.705 347.5 462.701 349.489 458.693C350.143 457.376 350.743 456.032 351.342 454.687L351.342 454.686L351.343 454.685L351.343 454.684L351.344 454.683L351.344 454.682L351.345 454.68C351.902 453.429 352.46 452.178 353.062 450.949C353.974 449.085 354.924 447.24 355.875 445.395L355.876 445.393C356.606 443.977 357.336 442.56 358.048 441.134C358.177 440.877 358.306 440.619 358.436 440.362C358.566 440.103 358.696 439.844 358.827 439.584C360.03 437.192 361.235 434.797 362.309 432.347C364.902 426.435 367.414 420.487 369.88 414.52C370.473 413.085 370.99 411.617 371.507 410.15L371.507 410.149L371.508 410.148L371.508 410.147L371.508 410.146L371.509 410.145C371.902 409.027 372.296 407.91 372.723 406.806C373.072 405.906 373.465 405.022 373.858 404.139L373.859 404.138L373.859 404.138C374.257 403.242 374.656 402.347 375.008 401.433C376.055 398.719 377.048 395.982 377.993 393.231C378.275 392.409 378.505 391.571 378.735 390.732C378.946 389.963 379.157 389.195 379.407 388.44C379.734 387.455 380.097 386.482 380.459 385.508L380.46 385.508L380.46 385.507L380.46 385.506L380.46 385.505L380.461 385.504L380.461 385.502C380.793 384.612 381.124 383.723 381.429 382.824C381.548 382.473 381.667 382.122 381.786 381.771L382.068 380.941L382.077 380.918L382.077 380.917L382.077 380.917L382.077 380.917L382.077 380.916L382.077 380.916C383.08 377.97 384.084 375.023 384.977 372.043C386.17 368.067 387.361 364.077 388.252 360.026C388.873 357.203 389.389 354.357 389.904 351.51L389.905 351.51C390.379 348.888 390.854 346.267 391.411 343.664C392.247 339.76 392.864 335.9 392.231 331.897C392.183 331.596 392.601 331.223 393.018 330.849C393.211 330.676 393.405 330.502 393.552 330.336C393.691 330.52 393.858 330.698 394.025 330.877L394.025 330.877L394.025 330.877L394.025 330.878L394.025 330.878C394.388 331.265 394.75 331.653 394.83 332.093C395.421 335.324 395.158 338.568 394.57 341.78C394.303 343.236 394.028 344.691 393.752 346.151C393.3 348.539 392.846 350.942 392.42 353.389ZM504.507 443.34C504.939 445.516 504.489 447.784 503.693 449.856C502.332 446.875 499.803 444.44 496.762 443.184C494.795 442.371 492.663 442.045 490.55 441.775C487.046 441.327 483.507 441.013 479.983 441.259C468.625 442.051 458.449 448.557 449.968 456.108C446.571 459.133 443.353 462.356 440.136 465.578C435.322 470.399 430.511 475.217 425.109 479.362C424.641 479.721 423.817 479.998 423.589 479.456C429.933 473.857 435.045 467.038 440.099 460.265L440.147 460.202L440.147 460.202C445.186 453.45 450.265 446.644 456.557 441.028C462.87 435.393 470.572 430.97 478.991 429.93C487.41 428.891 496.558 431.664 501.886 438.227C503.106 439.73 504.13 441.445 504.507 443.34ZM310.191 456.177C309.576 466.403 313.831 476.716 321.136 483.944C309.348 475.561 304.795 458.501 310.854 445.416C308.749 445.054 306.61 446.279 305.356 447.998C304.101 449.717 303.578 451.85 303.228 453.944C301.077 466.787 304.651 480.473 312.815 490.657C306.97 485.599 303.397 478.299 301.823 470.758C300.25 463.216 300.545 455.405 301.466 447.757C297.051 449.344 293.713 453.226 292.086 457.602C290.459 461.978 290.394 466.801 291.104 471.413C292.291 479.126 295.626 486.501 300.641 492.505C295.18 488.393 291.557 482.15 289.923 475.538C288.29 468.925 288.541 461.955 289.839 455.269C287.339 454.641 284.903 456.346 282.934 458.001C278.034 462.121 273.413 466.56 268.794 470.997L268.793 470.997L268.793 470.998L268.792 470.998C262.76 476.793 256.73 482.586 250.084 487.661C251.06 487.492 252.045 487.477 253.011 487.723C253.99 487.971 254.813 488.464 255.621 488.947L255.743 489.02C269.578 497.281 287.521 501.626 305.227 501.002C309.941 500.836 314.722 500.311 318.958 498.76C320.033 498.366 321.802 498.139 322.009 499.019C322.041 499.152 321.863 499.306 321.504 499.476C331.927 497.342 341.96 494.144 351.208 489.972C353.49 488.944 356.14 487.813 358.664 488.454C359.642 488.702 360.465 489.195 361.273 489.678L361.395 489.751C373.64 497.063 389.102 501.306 404.77 501.753C404.813 501.743 404.858 501.737 404.906 501.735C411.249 501.471 417.562 500.814 423.763 499.785C424.048 499.691 424.33 499.593 424.61 499.491C425.331 499.227 426.363 499.038 427.028 499.207C438.293 497.085 449.141 493.726 459.083 489.241C461.364 488.212 464.014 487.082 466.538 487.723C467.516 487.971 468.339 488.464 469.147 488.947L469.269 489.02C483.104 497.281 501.047 501.626 518.753 501.002C523.467 500.836 528.248 500.311 532.484 498.76C533.56 498.366 535.328 498.139 535.536 499.019C535.855 500.375 514.357 504.023 501.678 502.337C493.541 501.254 487.756 500.032 482.05 498.825L482.05 498.825C478.865 498.152 475.705 497.484 472.174 496.849C469.822 496.425 467.439 496.035 465.02 496.005C461.83 495.966 458.693 496.556 455.601 497.141L438.179 500.438C431.276 501.744 424.232 503.057 417.168 503.482C409.506 504.482 401.503 504.098 393.804 503.068C387.493 502.224 381.306 500.962 375.118 499.7L375.118 499.7L375.117 499.699L375.116 499.699L375.115 499.699C371.519 498.965 367.922 498.232 364.3 497.58C361.948 497.157 359.565 496.766 357.146 496.736C353.956 496.697 350.819 497.287 347.727 497.872L330.305 501.169C319.798 503.158 308.963 505.162 298.231 504.023C297.636 503.96 296.985 503.864 296.61 503.513C296.394 503.31 296.367 503 296.5 502.77C293.53 502.796 290.667 502.671 288.152 502.337C280.015 501.254 274.23 500.032 268.524 498.825C265.339 498.152 262.179 497.484 258.648 496.849C256.296 496.425 253.913 496.035 251.493 496.005C248.304 495.966 245.167 496.556 242.075 497.141L226.969 500C223.233 501.133 219.408 501.864 215.54 502.078C211.594 502.722 207.621 503.243 203.642 503.482C195.98 504.482 187.976 504.098 180.277 503.068C173.966 502.224 167.779 500.962 161.59 499.699L161.586 499.698L161.586 499.698L161.585 499.698C157.99 498.965 154.395 498.232 150.774 497.58C148.422 497.157 146.039 496.766 143.619 496.736C140.429 496.697 137.293 497.287 134.2 497.872L116.779 501.169C106.272 503.158 95.4372 505.162 84.7051 504.023C84.1093 503.96 83.4584 503.864 83.0839 503.513C82.7093 503.161 82.9043 502.492 83.5052 502.467C102.568 501.671 121.347 497.341 137.682 489.972C139.963 488.944 142.614 487.813 145.137 488.454C146.115 488.703 146.939 489.195 147.747 489.678L147.868 489.751C160.114 497.063 175.576 501.306 191.244 501.753C191.266 501.748 191.289 501.744 191.313 501.741C191.324 501.739 191.336 501.738 191.347 501.737C191.358 501.736 191.368 501.736 191.379 501.735C197.723 501.471 204.035 500.814 210.237 499.785C210.521 499.691 210.804 499.593 211.083 499.491C211.804 499.227 212.837 499.038 213.502 499.207C218.636 498.24 223.684 497.015 228.599 495.545C229.206 495.263 229.809 494.971 230.406 494.667C240.119 489.72 248 481.828 254.859 473.391C257.953 469.585 260.875 465.644 263.796 461.703L263.796 461.702L263.797 461.702L263.797 461.701C267.351 456.907 270.904 452.114 274.767 447.565C281.807 439.277 290.063 431.699 300.076 427.383C310.09 423.067 322.095 422.384 331.723 427.492C334.344 428.882 336.77 430.692 338.616 433.004C343.803 439.5 343.556 449.053 340.08 456.591C339.268 455.571 338.592 454.456 337.915 453.34L337.915 453.34L337.915 453.339L337.914 453.339L337.914 453.338C337.314 452.349 336.714 451.36 336.019 450.436C334.54 448.47 332.441 446.735 329.974 446.596C326.493 446.4 323.645 449.397 322.116 452.512C317.869 461.161 320.361 472.555 327.837 478.674C321.96 477.01 319.476 470.139 318.648 464.123C317.707 457.293 317.947 449.754 322.205 444.312C319.173 442.93 315.397 444.339 313.271 446.893C311.145 449.447 310.39 452.869 310.191 456.177ZM339.625 451.221C340.541 448.837 341.059 446.227 340.561 443.723C340.128 441.543 338.949 439.571 337.545 437.841C331.413 430.29 320.884 427.099 311.194 428.295C301.504 429.491 292.639 434.581 285.374 441.063C278.132 447.526 272.286 455.356 266.486 463.125L266.432 463.197C260.615 470.989 254.731 478.834 247.43 485.276C247.692 485.9 248.641 485.582 249.179 485.169C255.397 480.4 260.934 474.856 266.474 469.309C270.176 465.602 273.88 461.894 277.79 458.414C287.551 449.726 299.263 442.24 312.335 441.329C316.391 441.047 320.465 441.408 324.498 441.923C326.93 442.234 329.384 442.609 331.648 443.544C335.147 444.99 338.059 447.791 339.625 451.221Z" fill="#00160A"/>
<path fill-rule="evenodd" clip-rule="evenodd" d="M346.671 392.386C345.272 395.793 343.097 398.443 340.411 400.617C336.384 403.876 331.808 405.12 326.753 403.45C323.616 402.413 320.528 401.33 318.009 398.911C314.921 395.946 313.838 392.385 314.018 388.305C314.087 386.727 314.074 385.004 314.701 383.62C316.203 380.303 317.811 377.003 321.032 374.838C324.878 372.253 328.957 370.507 333.675 370.635C339.88 370.802 344.474 373.694 347.422 379.087C348.99 381.958 348.516 385.072 347.853 388.112C347.551 389.5 347.108 390.857 346.671 392.386ZM316.821 387.455C316.997 389.53 316.693 391.801 317.443 393.644C319.56 398.846 324.241 400.896 329.36 401.571C334.856 402.295 338.859 399.315 342.069 395.142C344.046 392.572 345.008 389.554 345.561 386.439C346.097 383.428 345.863 380.486 343.776 377.952C342.092 375.907 340.042 374.462 337.439 373.943C335.571 373.57 333.577 372.864 331.798 373.186C324.706 374.466 318.265 378.032 316.821 387.455Z" fill="#FFB61D"/>
<path fill-rule="evenodd" clip-rule="evenodd" d="M408.791 423.267C409.09 416.873 411.728 411.803 416.556 407.953C419.551 405.564 423.032 406.639 424.996 410.22C427.474 414.738 427.735 419.435 425.693 424.065C424.111 427.653 421.656 430.614 417.91 432.375C415.12 433.686 411.583 432.39 410.429 429.73C409.572 427.755 409.278 425.536 408.791 423.267ZM411.708 420.193C411.656 420.663 411.586 421.132 411.557 421.604C411.401 424.134 411.477 426.609 412.844 428.889C413.694 430.307 415.782 430.967 417.096 430.065C420.4 427.798 422.999 424.93 423.977 420.96C424.728 417.916 424.731 414.829 423.151 411.959C421.986 409.844 419.819 409.011 418.194 410.074C417.459 410.555 416.841 411.221 416.194 411.829C413.854 414.029 412.792 416.928 411.708 420.193Z" fill="#FFB61D"/>
<path fill-rule="evenodd" clip-rule="evenodd" d="M327.758 378.4C329.691 376.762 333.759 376.692 335.918 378.058C342.937 382.502 340.13 391.577 335.219 394.849C330.425 398.043 324.055 394.787 322.52 390.632C321.738 388.518 322.051 386.552 322.882 384.46C323.891 381.921 325.344 379.886 327.758 378.4ZM327.156 388.699C326.896 388.096 326.409 387.485 326.428 386.891C326.459 385.939 326.852 385.004 327.038 384.051C327.137 383.541 327.123 383.01 327.16 382.489C326.792 382.933 326.267 383.322 326.086 383.832C325.65 385.06 325.339 386.337 325.043 387.61C324.372 390.5 327.401 394.022 330.428 393.74C333.984 393.409 336.056 391.266 337.16 387.948C338.284 384.568 337.267 381.646 334.192 379.933C333.134 379.343 331.207 379.663 330.838 380.662C330.153 382.515 329.705 384.455 329.078 386.333C328.738 387.352 329.383 389.135 327.156 388.699Z" fill="#FFB61D"/>
<path fill-rule="evenodd" clip-rule="evenodd" d="M417.646 425.86C413.936 425.199 412.365 422.445 413.582 418.991C414.249 417.1 414.812 415.173 416.519 413.853C417.972 412.731 419.445 412.67 421.1 413.342C422.528 413.922 422.99 415.11 423.101 416.412C423.443 420.424 421.624 424.716 418.375 425.776C418.185 425.838 417.962 425.801 417.646 425.86ZM419.589 421.263C419.916 420.365 420.315 419.485 420.543 418.562C420.684 417.996 420.564 417.365 420.561 416.762C420.28 417.156 420.004 417.554 419.717 417.943C419.5 418.236 419.325 418.644 419.031 418.775C418.638 418.951 418.054 419.08 417.728 418.904C417.449 418.754 417.299 418.141 417.313 417.74C417.324 417.42 417.71 417.128 417.848 416.791C417.968 416.498 417.973 416.159 418.029 415.841C417.733 416.008 417.256 416.111 417.173 416.351C416.765 417.52 416.466 418.726 416.122 419.917C415.76 421.174 415.625 422.645 416.862 423.229C418.053 423.792 418.787 422.46 419.589 421.263Z" fill="#FFB61D"/>
<path fill-rule="evenodd" clip-rule="evenodd" d="M581.843 232.538C579.733 232.478 579.521 232.251 579.504 229.832C579.458 229.618 579.391 229.432 579.331 229.263C579.247 229.026 579.175 228.823 579.186 228.625C579.263 227.26 578.246 227.266 577.531 227.542C577.096 227.709 576.739 228.611 576.719 229.196C576.703 229.669 576.804 230.144 576.906 230.621C576.994 231.035 577.082 231.449 577.094 231.864C577.104 232.193 576.667 232.699 576.322 232.832C575.97 232.967 575.546 232.929 575.133 232.892C575.028 232.883 574.924 232.874 574.822 232.867C573.888 232.809 572.808 232.885 572.859 233.981C572.88 234.43 574.178 235.212 574.846 235.165C576.795 235.025 577.911 235.597 578.396 237.592C578.489 237.976 578.977 238.263 579.464 238.551C579.688 238.683 579.911 238.814 580.097 238.956C580.176 238.757 580.289 238.55 580.401 238.343C580.647 237.89 580.892 237.437 580.795 237.077C580.327 235.347 581.092 234.961 582.583 234.86C582.972 234.833 583.347 234.59 583.722 234.347C583.892 234.236 584.063 234.125 584.235 234.035C584.1 233.901 583.967 233.763 583.834 233.626L583.832 233.624C583.502 233.281 583.171 232.939 582.796 232.655C582.625 232.527 582.345 232.532 582.078 232.537C581.997 232.539 581.918 232.541 581.843 232.538ZM151.205 232.484C151.198 232.44 151.189 232.38 151.13 232.282C149.322 231.508 148.568 231.887 148.527 233.557C148.503 234.525 148.166 234.977 147.191 235.303C146.512 235.531 145.581 236.358 145.573 236.929C145.559 237.852 146.574 238.073 147.478 237.941C148.634 237.772 148.875 238.368 148.874 239.396C148.873 240.473 148.922 241.6 149.253 242.606C149.361 242.936 149.803 243.156 150.244 243.377C150.444 243.476 150.644 243.576 150.813 243.686C150.887 243.545 150.967 243.406 151.046 243.267L151.046 243.267C151.233 242.942 151.419 242.616 151.53 242.267C151.608 242.02 151.589 241.742 151.569 241.464C151.561 241.34 151.552 241.216 151.552 241.094C151.552 237.967 151.559 237.965 154.277 237.007L154.339 236.985C154.662 236.871 154.94 236.631 155.217 236.39C155.346 236.279 155.474 236.168 155.607 236.07C155.467 235.948 155.333 235.811 155.199 235.673C154.902 235.369 154.605 235.064 154.246 234.937C153.266 234.59 151.547 233.37 151.216 232.534C151.211 232.519 151.208 232.503 151.205 232.484ZM526.309 293.437C527.176 293.437 527.55 296.43 527.711 297.72C527.74 297.949 527.761 298.124 527.778 298.219C527.824 298.481 528.65 298.491 529.476 298.501C530.3 298.511 531.125 298.52 531.177 298.781C531.227 299.034 530.407 299.476 529.633 299.892C528.981 300.243 528.363 300.576 528.33 300.763C528.304 300.914 528.282 301.132 528.257 301.387C528.143 302.534 527.954 304.434 526.916 304.434C526.739 304.434 526.546 303.955 526.3 303.344C525.865 302.261 525.262 300.763 524.283 300.763C524.001 300.763 519.824 300.613 519.766 300.275C519.71 299.941 523.678 298.688 524.283 298.511C524.819 298.354 525.166 296.9 525.479 295.588C525.748 294.459 525.992 293.437 526.309 293.437ZM103.607 308.037C103.8 308.916 103.998 309.822 105.595 309.58C105.933 309.146 106.252 308.709 106.244 308.277C106.236 307.844 106.154 307.407 106.072 306.97C105.87 305.89 105.667 304.811 106.586 303.798C106.651 303.726 106.437 303.297 106.262 303.127C105.174 302.071 104.812 300.819 104.836 299.304C104.842 298.908 103.872 298.361 103.26 298.167C103.057 298.102 102.393 298.873 102.261 299.351C102.09 299.967 102.038 300.768 102.297 301.321C102.786 302.37 102.183 302.548 101.572 302.729C101.482 302.755 101.393 302.782 101.306 302.811C101.102 302.88 100.88 302.913 100.66 302.946C100.346 302.992 100.036 303.037 99.7847 303.188C99.183 303.548 98.1679 304.331 98.2545 304.53C98.5896 305.296 99.2262 305.763 100.305 305.315C101.014 305.021 101.998 305.053 102.73 305.308C102.902 305.367 102.949 305.7 103.002 306.074C103.05 306.416 103.104 306.792 103.262 307.026C103.446 307.3 103.526 307.666 103.607 308.037Z" fill="#00160A"/>
<path d="M405.376 386.719L583.802 386.731L405.376 386.719Z" fill="#4A0DBF"/>
<path fill-rule="evenodd" clip-rule="evenodd" d="M389.888 175.198C389.888 175.198 390.169 163.511 392.634 161.392C393.997 160.22 394.242 166.647 399.138 167.975C402.506 168.889 406.373 166.987 410.049 167.878C411.625 168.26 415.373 171.247 414.466 172.097C413.503 173 411.996 170.693 406.308 171.383C404.072 171.655 400.467 174.859 397.223 175.06C392.653 175.344 389.888 175.198 389.888 175.198Z" fill="#FFB61D"/>
<defs>
<linearGradient id="paint0_linear_847_1419" x1="621.988" y1="-201.601" x2="-101.091" y2="-12.9593" gradientUnits="userSpaceOnUse">
<stop stop-color="#9A4DFF"/>
<stop offset="0.982198" stop-color="#3FE7FF"/>
</linearGradient>
</defs>
</svg>
