<svg width="32" height="32" viewBox="0 0 32 32" fill="none" xmlns="http://www.w3.org/2000/svg">
<path d="M32 16C32 24.8366 24.8366 32 16 32C7.16344 32 0 24.8366 0 16C0 7.16344 7.16344 0 16 0C24.8366 0 32 7.16344 32 16Z" fill="#7289DA"/>
<path d="M21.5131 8.79999H10.4868C9.55702 8.79999 8.79999 9.53599 8.79999 10.448V21.264C8.79999 22.176 9.55702 22.912 10.4868 22.912H19.818L19.3819 21.432L20.4352 22.384L21.4308 23.28L23.2 24.8V10.448C23.2 9.53599 22.443 8.79999 21.5131 8.79999ZM18.3369 19.248C18.3369 19.248 18.0407 18.904 17.7938 18.6C18.8718 18.304 19.2832 17.648 19.2832 17.648C18.9458 17.864 18.6249 18.016 18.3369 18.12C17.9255 18.288 17.5305 18.4 17.1438 18.464C16.3538 18.608 15.6297 18.568 15.0126 18.456C14.5435 18.368 14.1403 18.24 13.803 18.112C13.6137 18.04 13.408 17.952 13.2023 17.84C13.1776 17.824 13.1529 17.816 13.1282 17.8C13.1118 17.792 13.1035 17.784 13.0953 17.776C12.9472 17.696 12.8649 17.64 12.8649 17.64C12.8649 17.64 13.2599 18.28 14.3049 18.584C14.058 18.888 13.7536 19.248 13.7536 19.248C11.9351 19.192 11.2439 18.032 11.2439 18.032C11.2439 15.456 12.4288 13.368 12.4288 13.368C13.6137 12.504 14.741 12.528 14.741 12.528L14.8233 12.624C13.3422 13.04 12.6592 13.672 12.6592 13.672C12.6592 13.672 12.8402 13.576 13.1447 13.44C14.0251 13.064 14.7246 12.96 15.0126 12.936C15.0619 12.928 15.1031 12.92 15.1524 12.92C15.6544 12.856 16.2222 12.84 16.8146 12.904C17.5963 12.992 18.4356 13.216 19.2914 13.672C19.2914 13.672 18.6414 13.072 17.2425 12.656L17.3577 12.528C17.3577 12.528 18.485 12.504 19.6699 13.368C19.6699 13.368 20.8548 15.456 20.8548 18.032C20.8548 18.032 20.1554 19.192 18.3369 19.248ZM14.5106 15.512C14.0416 15.512 13.6713 15.912 13.6713 16.4C13.6713 16.888 14.0498 17.288 14.5106 17.288C14.9796 17.288 15.3499 16.888 15.3499 16.4C15.3582 15.912 14.9796 15.512 14.5106 15.512ZM17.514 15.512C17.045 15.512 16.6747 15.912 16.6747 16.4C16.6747 16.888 17.0532 17.288 17.514 17.288C17.9831 17.288 18.3534 16.888 18.3534 16.4C18.3534 15.912 17.9831 15.512 17.514 15.512Z" fill="white"/>
</svg>
