<svg width="32" height="32" viewBox="0 0 32 32" fill="none" xmlns="http://www.w3.org/2000/svg">
<path d="M16.0001 0C7.16466 0 0 7.34463 0 16.4051C0 23.6533 4.58452 29.8026 10.9419 31.9718C11.7415 32.1237 12.0351 31.6159 12.0351 31.1826C12.0351 30.7914 12.0202 29.4991 12.0133 28.1283C7.5621 29.1207 6.62283 26.1928 6.62283 26.1928C5.89499 24.2966 4.8463 23.7924 4.8463 23.7924C3.39461 22.7742 4.95573 22.7951 4.95573 22.7951C6.56242 22.9108 7.40842 24.4856 7.40842 24.4856C8.83547 26.9936 11.1514 26.2685 12.0645 25.8494C12.2081 24.7891 12.6227 24.0654 13.0803 23.6557C9.52648 23.2409 5.7906 21.8342 5.7906 15.5483C5.7906 13.7572 6.41563 12.2938 7.43916 11.1449C7.27303 10.7317 6.72537 9.06316 7.59415 6.80348C7.59415 6.80348 8.93774 6.36258 11.9953 8.48507C13.2716 8.12158 14.6404 7.9393 16.0001 7.93305C17.3599 7.9393 18.7297 8.12158 20.0084 8.48507C23.0623 6.36258 24.404 6.80348 24.404 6.80348C25.2749 9.06316 24.727 10.7317 24.5608 11.1449C25.5868 12.2938 26.2075 13.7572 26.2075 15.5483C26.2075 21.8492 22.4645 23.2365 18.9017 23.6427C19.4756 24.1518 19.9869 25.1501 19.9869 26.6807C19.9869 28.8757 19.9684 30.6423 19.9684 31.1826C19.9684 31.6192 20.2564 32.1307 21.0674 31.9696C27.4213 29.798 32 23.6508 32 16.4051C32 7.34463 24.8364 0 16.0001 0" fill="#161514"/>
<path d="M6.10727 23.4416C6.0721 23.5223 5.94727 23.5465 5.83355 23.4911C5.71772 23.4381 5.65266 23.3281 5.69022 23.2471C5.7246 23.164 5.84969 23.1408 5.96526 23.1965C6.08136 23.2495 6.14747 23.3606 6.10727 23.4416" fill="#161514"/>
<path d="M6.75405 24.1753C6.67789 24.2471 6.52899 24.2138 6.42797 24.1003C6.32351 23.987 6.30394 23.8356 6.38116 23.7627C6.4597 23.6909 6.6041 23.7245 6.70883 23.8377C6.81329 23.9523 6.83366 24.1027 6.75405 24.1753" fill="#161514"/>
<path d="M7.3838 25.1109C7.28595 25.18 7.12595 25.1152 7.02704 24.9707C6.92919 24.8263 6.92919 24.653 7.02916 24.5836C7.12833 24.5143 7.28595 24.5767 7.38619 24.72C7.48377 24.8669 7.48377 25.0401 7.3838 25.1109" fill="#161514"/>
<path d="M8.24643 26.0146C8.15889 26.1128 7.97244 26.0864 7.83598 25.9525C7.69634 25.8215 7.65747 25.6356 7.74527 25.5374C7.83386 25.439 8.02137 25.4667 8.15889 25.5996C8.29747 25.7303 8.33978 25.9175 8.24643 26.0146" fill="#161514"/>
<path d="M9.43653 26.5394C9.39792 26.6666 9.21835 26.7245 9.03746 26.6704C8.85683 26.6147 8.73861 26.4657 8.77511 26.3371C8.81266 26.2091 8.99303 26.1488 9.17524 26.2067C9.35561 26.2621 9.47409 26.41 9.43653 26.5394" fill="#161514"/>
<path d="M10.7435 26.6368C10.748 26.7707 10.5946 26.8818 10.4048 26.8843C10.2138 26.8886 10.0594 26.7802 10.0573 26.6484C10.0573 26.5131 10.2072 26.403 10.3981 26.3998C10.588 26.396 10.7435 26.5036 10.7435 26.6368" fill="#161514"/>
<path d="M11.9599 26.4261C11.9826 26.5569 11.8507 26.6911 11.6621 26.7269C11.4767 26.7613 11.3051 26.6806 11.2816 26.5509C11.2585 26.417 11.3929 26.2828 11.578 26.2481C11.7668 26.2147 11.9358 26.2933 11.9599 26.4261" fill="#161514"/>
</svg>
