<svg viewBox="0 0 599 599" fill="none" xmlns="http://www.w3.org/2000/svg">
<path opacity="0.25" fill-rule="evenodd" clip-rule="evenodd" d="M323.436 519.815C430.934 519.815 446.174 471.99 462.473 463.202C478.773 454.414 468.639 436.777 479.329 423.475C496.405 402.227 506.754 413.177 512.405 385.613C518.056 358.048 507.782 350.25 507.782 325.64C507.782 276.333 531.402 252.993 501.239 227.195C471.076 201.397 420.706 204.441 370.888 204.441C278.421 204.441 223.027 77.6834 99.6985 115.712C57.197 128.817 61.8943 146.677 71.2331 209.793C75.2885 237.2 44.669 272.047 49.9816 303.193C59.6845 360.078 85.3102 352.361 133.66 390.769C141.771 397.212 153.602 397.145 162.445 403.754C177.27 414.833 178.223 432.06 205.939 443.68C250.63 462.417 246.839 519.815 323.436 519.815Z" fill="url(#paint0_linear_804_1410)"/>
<ellipse cx="117.929" cy="372.977" rx="27.1785" ry="25.5573" fill="white"/>
<path fill-rule="evenodd" clip-rule="evenodd" d="M107.27 281.855C102.637 270.283 106.684 263.351 109.278 254.3C111.445 246.741 128.392 234.461 136.191 247.265C138.485 251.032 137.565 254.593 142.58 257.903C154.719 265.918 148.097 249.291 148.548 245.087C148.768 243.037 147.036 238.309 147.681 236.33C148.358 234.254 151.964 231.304 151.964 227.001C151.964 222.697 144.628 221.039 142.58 219.982C124.38 210.585 112.805 194.89 118.573 186.924C126.61 175.826 158.106 193.288 167.57 194.89C167.692 194.911 169.382 186.087 170.763 184.067C173.525 180.025 176.577 176.101 180.219 172.829C181.85 171.363 184.061 170.459 186.234 170.165C192.738 169.288 199.392 168.568 205.906 169.363C208.208 169.644 221.917 153.778 227.263 148.66C268.274 109.394 350.487 157.244 305.674 222.265C297.437 234.215 286.905 238.016 285.544 242.24C282.523 251.622 301.544 250.388 309.6 251.39C323.365 253.102 330.149 260.173 321.605 272.292C316.281 279.842 285.054 279.457 271.375 273.997C266.298 271.971 260.023 263.111 255.225 270.379C251.918 275.386 239.028 286.011 225.199 292.021C218.957 294.734 211.848 293.099 206.521 295.521C199.024 298.931 176.891 313.249 167.57 313.245C158.182 313.242 146.033 301.944 144.628 301.203C142.485 300.073 125.914 296.836 117.727 284.202C115.251 280.382 108.966 286.09 107.27 281.855Z" fill="white"/>
<ellipse cx="266.669" cy="214.775" rx="2.87906" ry="2.83789" fill="#FFB61D"/>
<ellipse cx="245.59" cy="208.851" rx="2.79533" ry="2.79533" fill="#FFB61D"/>
<ellipse cx="449.25" cy="206.455" rx="37.9367" ry="37.9367" fill="white"/>
<ellipse cx="330.628" cy="421.673" rx="110.236" ry="94.2194" fill="white"/>
<path fill-rule="evenodd" clip-rule="evenodd" d="M237.173 473.047L238.41 473.942C235.618 476.448 231.417 473.332 229.062 470.412C225.275 465.716 221.432 460.726 220.279 454.805C219.623 451.435 219.886 447.963 220.151 444.541L221.219 430.742C221.693 424.627 222.167 418.501 223.226 412.459C226.091 396.11 233.302 380.542 243.921 367.784L244.027 367.656C245.903 365.404 247.95 362.945 247.914 360.025C247.838 353.848 251.395 348.075 256.066 344.031C260.736 339.988 266.456 337.393 272.087 334.853C274.639 333.702 277.97 332.671 279.947 334.652C284.014 338.726 290.801 336.131 296.173 334.062C302.768 331.521 309.813 330.152 316.88 330.038C317.085 330.035 317.293 330.032 317.501 330.029L317.501 330.029C321.744 329.968 326.52 329.9 329.108 326.613C330.757 324.52 333.908 324.641 336.553 324.958L354.746 327.134C356.137 327.3 357.802 327.679 358.241 329.009C359.416 332.575 363.562 334.03 367.156 335.113C379.934 338.966 392.425 344.197 403.273 351.972C414.121 359.746 423.291 370.204 428.156 382.632C420.245 371.82 412.13 360.805 401.152 353.126C398.01 350.929 394.669 349.032 391.277 347.244C383.272 343.024 374.941 339.387 366.286 336.745C326.109 324.482 279.633 335.856 249.659 365.287C245.313 369.554 241.238 374.255 238.773 379.824L242.029 380.834C236.868 383.141 233.035 388.195 232.206 393.786C234.283 390.229 237.243 387.192 240.745 385.025C239.743 388.374 237.135 391.065 234.579 393.702C231.322 397.064 228.148 400.34 228.485 404.782C230.031 400.723 233.927 397.66 238.236 397.113C231.401 403.792 224.067 411.63 224.285 421.183C226.778 415.666 231.011 410.952 236.229 407.881L228.718 417.975C225.877 421.792 222.886 426.154 223.535 430.868C226.006 426.433 229.539 422.595 233.755 419.766C231.725 424.382 228.826 428.615 225.257 432.177C228.651 431.767 231.92 430.361 234.552 428.178C233.449 429.718 232.454 431.457 232.417 433.351C232.38 435.246 233.608 437.279 235.483 437.552C236.05 436.282 237.831 435.746 239.005 436.491C235.446 439.954 235.41 446.369 238.928 449.872C239.241 448.226 240.63 446.838 242.277 446.527C239.652 451.116 239.18 456.879 241.023 461.834C241.581 459.027 243.139 456.428 245.352 454.614C244.076 461.273 241.255 467.632 237.173 473.047ZM235.619 470.925C237.841 470.902 239.223 468.416 239.455 466.206C239.732 463.562 239.075 460.92 238.423 458.342L234.558 443.054C233.831 443.284 233.746 444.076 233.658 444.905C233.582 445.612 233.504 446.347 233.02 446.783C232.041 445.567 231.93 443.725 232.755 442.399C233.588 441.061 233.043 439.187 231.862 438.144C230.68 437.1 229.036 436.746 227.46 436.694C226.609 436.666 225.703 436.732 225.007 437.222C224.31 437.712 223.943 438.754 224.438 439.448C225.911 441.512 227.02 443.836 227.696 446.28C227.747 446.462 227.796 446.647 227.845 446.833L227.845 446.833C228.182 448.102 228.528 449.407 229.456 450.311C230.174 451.01 230.357 452.077 230.502 453.069L231.683 461.102C231.898 462.564 232.113 464.056 231.867 465.513C231.621 466.97 230.834 468.415 229.512 469.077L233.733 470.512C234.345 470.721 234.972 470.932 235.619 470.925ZM281.625 339.25C280.794 339.426 280.096 338.695 279.501 338.071L279.432 338C278.822 337.362 277.773 336.806 277.13 337.411C269.639 344.458 261.114 350.405 251.913 355.002C250.243 355.837 250.019 358.086 250.018 359.953C250.017 360.577 250.614 361.452 251.003 360.964C252.9 358.587 255.368 356.742 257.806 354.924C264.667 349.809 271.61 344.646 279.475 341.273C280.43 340.864 281.547 340.285 281.625 339.25ZM356.918 331.324C356.494 330.328 355.287 329.968 354.223 329.768C351.323 329.222 348.372 328.974 345.423 328.727C341.374 328.387 337.33 328.048 333.434 326.936C332.186 326.58 331.118 327.845 330.434 328.948C332.487 328.734 334.554 328.646 336.618 328.684C340.211 328.75 343.784 329.198 347.35 329.645C349.162 329.872 350.986 330.102 352.724 330.664C352.926 330.729 353.13 330.799 353.335 330.87C354.521 331.277 355.747 331.698 356.918 331.324ZM318.565 346.637C319.386 346.825 320.168 347.438 320.291 348.272C320.413 349.103 319.845 349.913 319.12 350.336C318.394 350.759 317.536 350.878 316.703 350.988L314.196 351.32C313.945 351.353 313.686 351.389 313.468 351.519C312.837 351.892 312.881 352.903 313.396 353.423C313.912 353.944 314.702 354.073 315.434 354.072C318.845 354.065 322.073 351.611 323.115 348.363C323.362 347.592 323.493 346.735 323.187 345.985C323.031 345.605 322.772 345.275 322.483 344.982C321.142 343.623 319.143 343.024 317.238 343.159C315.334 343.293 313.522 344.104 311.972 345.22C311.229 345.754 310.52 346.38 310.098 347.193C309.676 348.005 309.585 349.036 310.058 349.82C310.238 350.119 310.516 350.384 310.861 350.44C311.206 350.496 311.603 350.274 311.646 349.928C311.765 348.965 312.468 348.151 313.306 347.661C314.143 347.172 315.11 346.956 316.061 346.766C316.887 346.601 317.744 346.45 318.565 346.637ZM251.354 394.276C252.291 388.734 256.768 384.227 261.988 382.139C264.864 380.988 268.155 380.484 271.048 381.592C271.761 381.866 272.452 382.244 272.967 382.809C273.45 383.341 273.754 384.011 273.984 384.691C275.453 389.05 273.962 394.091 270.804 397.436C267.647 400.781 263.051 402.536 258.463 402.865C256.993 402.971 255.415 402.911 254.201 402.076C252.987 401.24 252.384 399.384 253.319 398.245C253.761 398.266 253.999 398.661 254.243 399.064C254.364 399.264 254.486 399.467 254.635 399.627C255.144 400.176 255.987 400.215 256.735 400.184C259.988 400.047 263.291 399.241 265.938 397.346C268.586 395.451 270.489 392.356 270.433 389.1C270.415 388.051 270.187 386.978 269.593 386.114C268.617 384.694 266.773 384.054 265.055 384.167C263.336 384.281 261.725 385.043 260.262 385.951C258.337 387.146 256.557 388.648 255.351 390.566C254.144 392.484 253.554 394.855 254.064 397.062C253.613 397.876 252.272 397.714 251.718 396.966C251.164 396.218 251.199 395.194 251.354 394.276ZM281.314 439.961C278.934 441.492 276.961 443.889 276.594 446.695C276.297 448.966 277.058 451.227 277.808 453.391C278.393 455.079 278.998 456.804 280.112 458.201C282.126 460.723 285.46 461.767 288.646 462.28C289.514 462.419 290.831 462.027 290.521 461.205C287.157 461.143 283.848 459.584 281.658 457.028C279.468 454.473 278.434 450.964 278.889 447.63C278.984 446.928 279.144 446.23 279.439 445.586C280.035 444.284 281.146 443.283 282.349 442.506C284.938 440.832 288.09 440.048 291.162 440.313C294.123 440.569 297.081 441.867 298.889 444.227C300.696 446.586 301.127 450.067 299.532 452.575C299.273 452.982 299.084 453.703 299.559 453.788C302.127 452.405 303.552 449.354 303.409 446.44C303.265 443.527 301.726 440.8 299.612 438.79C298.443 437.678 297.059 436.739 295.49 436.361C293.422 435.863 291.259 436.377 289.202 436.918C286.464 437.638 283.694 438.429 281.314 439.961ZM398.206 443.58C389.599 440.366 380.247 439.168 371.108 440.109C367.276 440.503 363.432 441.286 359.987 443.01C353.487 446.263 348.839 452.96 348.066 460.187C347.293 467.415 350.418 474.944 356.083 479.498C358.231 481.226 360.67 482.519 363.111 483.814L363.112 483.814C364.778 484.698 366.447 485.583 368.025 486.607C368.476 487.038 367.461 487.468 366.868 487.276C361.347 485.495 355.986 482.784 352.049 478.525C347.258 473.343 344.922 465.984 345.846 458.988C346.77 451.991 350.937 445.491 356.908 441.731C361.632 438.756 367.279 437.503 372.857 437.302C378.435 437.1 383.997 437.898 389.513 438.752C392.958 439.286 396.998 440.31 398.206 443.58ZM307.645 454.364C307.254 453.468 305.683 453.235 305.396 454.169C303.57 460.11 297.773 464.602 291.564 464.887C290.16 464.951 288.756 464.821 287.357 464.686C284.345 464.394 281.239 464.05 278.602 462.567C274.809 460.435 272.527 456.056 272.5 451.705C272.473 447.354 274.537 443.126 277.671 440.107C277.236 438.889 275.368 439.477 274.441 440.379C269.301 445.374 268.419 453.997 272.026 460.191C275.632 466.385 283.19 469.857 290.314 469.07C297.438 468.282 303.87 463.512 307.182 457.156C307.633 456.289 308.036 455.259 307.645 454.364ZM263.033 484.449C261.872 488.9 261.762 493.621 262.714 498.12C263.141 500.139 263.187 501.251 263.196 501.459C263.197 501.483 263.197 501.495 263.198 501.495C263.199 501.495 263.199 501.483 263.2 501.459C263.21 501.25 263.26 500.134 263.697 498.113C264.67 493.605 264.438 488.842 263.033 484.449ZM269.198 487.141C267.55 490.597 267.754 494.873 269.725 498.156C270.167 498.894 270.503 499.493 270.751 499.936C271.085 500.53 271.259 500.841 271.319 500.82C271.384 500.798 271.314 500.381 271.168 499.508C271.109 499.158 271.038 498.735 270.959 498.235L269.198 487.141ZM273.841 491.554C273.141 493.761 273.656 496.312 275.156 498.074C276.689 499.874 277.189 500.451 276.722 498.134C276.246 495.769 275.256 493.508 273.841 491.554ZM408.182 466.456C406.077 474.907 399.353 481.31 392.834 487.084C393.132 487.726 394.095 487.496 394.712 487.149C401.315 483.432 406.659 477.375 409.097 470.2C411.535 463.025 410.929 454.782 407.08 448.254C406.757 447.706 406.345 447.123 405.721 447.001C405.097 446.878 404.378 447.602 404.745 448.122C408.444 453.361 409.732 460.233 408.182 466.456ZM313.242 390.156C313.226 388.819 313.245 387.372 314.052 386.306C315.163 384.839 317.272 384.685 319.113 384.659C319.934 384.648 320.765 384.637 321.565 384.827C323.266 385.232 324.622 386.488 325.83 387.753C326.097 388.034 326.382 388.379 326.316 388.76C326.234 389.234 325.641 389.451 325.17 389.355C324.857 389.29 324.576 389.135 324.295 388.979C324.153 388.9 324.011 388.821 323.865 388.754C322.173 387.978 320.184 388.829 318.664 389.904C318.425 390.073 318.167 390.291 318.161 390.583C318.155 390.877 318.407 391.105 318.644 391.279C320.698 392.783 323.328 393.48 325.858 393.19C326.463 393.12 327.173 392.899 327.33 392.31C327.391 392.08 327.368 391.81 327.345 391.549C327.306 391.112 327.27 390.701 327.637 390.549C327.828 390.47 328.046 390.527 328.244 390.585C329.613 390.983 331.214 391.623 331.479 393.024C331.556 393.429 331.502 393.851 331.373 394.242C330.996 395.387 329.945 396.282 328.754 396.471C328.225 396.555 327.685 396.509 327.152 396.463C325.759 396.344 324.364 396.224 322.983 396.002C320.448 395.593 317.969 394.838 315.636 393.763C314.827 393.39 313.986 392.932 313.576 392.14C313.264 391.539 313.249 390.833 313.242 390.156ZM365.313 357.19C364.499 354.988 362.53 353.25 360.243 352.715C359.536 352.549 358.737 352.508 358.137 352.918C357.537 353.328 357.331 354.327 357.903 354.775C358.457 355.21 358.122 356.232 357.444 356.425C356.767 356.618 356.038 356.158 355.699 355.54C355.361 354.922 355.325 354.188 355.321 353.483C355.316 352.543 355.401 351.494 356.096 350.86C356.361 350.619 356.69 350.463 357.018 350.317C358.371 349.712 359.867 349.199 361.313 349.524C362.692 349.833 363.79 350.851 364.751 351.886C365.539 352.735 366.284 353.623 366.983 354.547C367.599 355.361 368.191 356.229 368.422 357.223C368.654 358.217 368.454 359.37 367.686 360.043C366.935 360.7 365.778 360.757 364.866 360.35C364.06 359.991 363.371 359.201 363.431 358.321C363.492 357.44 364.573 356.71 365.313 357.19ZM372.586 419.11C374.607 419.052 376.489 417.496 376.926 415.522C377.192 414.321 376.864 412.893 375.818 412.247C375.054 411.776 374.093 411.81 373.196 411.868C371.955 411.947 370.667 412.056 369.589 412.675C368.51 413.295 367.709 414.579 368.046 415.776C368.596 417.722 370.564 419.168 372.586 419.11ZM372.845 416.194C372.454 416.299 371.897 416.199 371.862 415.796C371.847 415.628 371.938 415.47 372.04 415.336C372.615 414.593 373.709 414.304 374.576 414.667C374.274 415.405 373.615 415.987 372.845 416.194ZM373.889 386.287C373.56 385.527 374.198 384.642 374.973 384.351C375.593 384.118 376.267 384.142 376.936 384.166C377.102 384.172 377.269 384.178 377.433 384.18C378.261 384.191 379.176 384.053 379.713 383.423C379.903 383.2 380.031 382.874 379.887 382.62C379.736 382.355 379.38 382.309 379.075 382.293C376.965 382.184 374.473 382.249 373.257 383.976C372.995 384.348 372.355 384.222 372.111 383.839C371.866 383.456 371.923 382.954 372.062 382.522C372.56 380.974 373.99 379.848 375.553 379.396C377.115 378.945 378.793 379.087 380.379 379.446C380.914 379.567 381.469 379.727 381.859 380.112C382.169 380.417 382.343 380.835 382.456 381.255C382.996 383.264 382.198 385.564 380.53 386.807C378.863 388.05 376.43 388.158 374.66 387.066C374.344 386.871 374.037 386.628 373.889 386.287ZM366.656 421.779C367.636 422.953 368.797 424.021 370.205 424.618C373.05 425.827 376.688 424.711 378.366 422.114C378.977 421.169 379.251 419.727 378.347 419.056C376.899 422.099 372.7 423.443 369.754 421.806C369.19 421.492 368.677 421.091 368.211 420.644C366.092 418.617 364.988 415.304 366.23 412.648C366.635 411.782 367.258 411.035 367.938 410.363C369.422 408.898 371.545 407.699 373.526 408.35C373.608 408.377 373.689 408.407 373.771 408.438L373.772 408.438C374.049 408.54 374.328 408.642 374.619 408.625C374.997 408.603 375.392 408.265 375.295 407.899C375.266 407.791 375.199 407.697 375.13 407.609C373.905 406.049 371.503 405.568 369.772 406.535C367.712 407.686 365.618 409.041 364.523 411.131C362.739 414.533 364.195 418.83 366.656 421.779ZM399.469 369.306C399.378 369.436 399.401 369.617 399.422 369.79C399.448 369.995 399.472 370.189 399.304 370.272C398.687 370.577 397.949 370.545 397.292 370.344C395.498 369.793 394.295 368.147 393.28 366.568C392.686 365.645 392.095 364.664 391.999 363.571C391.903 362.478 392.462 361.247 393.516 360.937C394.69 360.593 395.841 361.466 396.755 362.28C397.786 363.197 398.84 364.144 399.478 365.368C400.116 366.592 400.258 368.174 399.469 369.306ZM395.567 365.21C395.82 365.456 395.959 365.786 396.098 366.117C396.234 366.442 396.371 366.768 396.617 367.014C396.929 367.325 397.402 367.464 397.833 367.371C397.026 366.123 396.091 364.957 395.048 363.899C394.769 363.983 394.746 364.396 394.913 364.634C395.015 364.779 395.158 364.885 395.3 364.992C395.393 365.061 395.485 365.13 395.567 365.21ZM241.976 478.008C241.876 479.647 242.002 481.545 243.313 482.532C243.75 482.288 243.72 481.664 243.665 481.166C243.327 478.104 244.277 475.152 245.233 472.181C245.918 470.054 246.606 467.917 246.827 465.722C246.891 465.085 246.721 464.214 246.081 464.189C245.602 464.171 245.293 464.676 245.1 465.115C243.309 469.183 242.245 473.571 241.976 478.008ZM369.177 418.916C370.657 419.571 372.297 420.238 373.845 419.768C374.461 419.581 375.01 419.226 375.549 418.874C375.546 419.779 374.768 420.539 373.901 420.798C373.033 421.056 372.101 420.918 371.216 420.726C370.234 420.514 369.033 419.911 369.177 418.916ZM252.142 494.443C252.519 493.771 252.584 492.973 252.64 492.204L253.086 486.079C253.305 483.072 253.525 480.054 253.328 477.047C253.304 476.667 253.265 476.268 253.044 475.959C252.823 475.65 252.355 475.485 252.052 475.714C251.829 475.883 251.772 476.189 251.734 476.465C251.249 479.943 250.99 483.453 250.959 486.965C250.936 489.511 251.052 492.142 252.142 494.443ZM245.447 489.179C245.054 489.51 244.401 489.219 244.185 488.753C243.968 488.286 244.056 487.743 244.148 487.238C245.118 481.951 246.217 476.688 247.446 471.455C247.477 471.324 247.51 471.188 247.595 471.084C247.918 470.684 248.572 471.086 248.802 471.546C249.365 472.675 249.095 474.022 248.813 475.252L245.785 488.458C245.725 488.722 245.653 489.004 245.447 489.179ZM255.934 489.413C255.765 491.396 256.063 493.386 256.359 495.354C256.465 496.055 256.969 496.986 257.602 496.667L258.836 483.474C258.886 482.937 258.92 482.342 258.587 481.918C258.254 481.494 257.412 481.511 257.305 482.04L256.396 486.564C256.206 487.508 256.016 488.454 255.934 489.413ZM383.335 448.979C379.822 447.17 375.547 446.457 371.898 447.972C369.173 449.104 361.471 453.992 360.446 460.256C359.76 464.45 359.767 468.736 361.234 472.785L361.471 473.42C361.908 474.567 363.301 475.885 364.079 474.937C361.806 470.826 361.381 465.737 362.942 461.307C364.502 456.876 368.023 453.177 372.371 451.399C373.285 451.025 374.241 450.731 375.225 450.637C377.215 450.449 379.201 451.094 380.98 452.005C384.81 453.968 389.556 457.231 391.379 461.129C393.136 464.888 394.431 469.37 392.84 473.202C391.25 477.034 380.801 479.806 380.801 479.806L381.958 481.916C381.958 481.916 387.806 480.762 391.379 478.161C406.375 467.238 386.695 450.708 383.335 448.979Z" fill="#00160A"/>
<path fill-rule="evenodd" clip-rule="evenodd" d="M118.243 395.05C112.94 395.619 107.322 394.392 103.181 391.03C100.248 388.648 98.1876 385.336 96.7415 381.846C95.1716 378.057 94.269 373.992 94.0875 369.895C94.0192 368.352 94.0559 366.781 94.5092 365.305C95.2553 362.876 97.0521 360.926 98.8862 359.167C102.788 355.425 107.375 352.01 112.724 351.223C116.369 350.687 120.076 351.418 123.644 352.336C126.446 353.057 129.245 353.907 131.765 355.328C137.334 358.468 141.194 364.458 141.752 370.827C142.31 377.196 141.623 381.416 133.028 389.329C128.562 392.245 123.547 394.481 118.243 395.05ZM127.596 375.057C126.736 375.327 125.879 375.808 124.991 375.652C123.176 375.332 122.852 372.843 123.254 371.046C124.408 365.9 127.994 361.356 132.731 359.039C131.659 357.094 128.81 356.951 126.796 357.886C124.781 358.821 123.206 360.505 121.258 361.572C120.288 362.102 119.139 362.478 118.085 362.147C116.349 361.604 115.687 359.331 116.255 357.603C116.823 355.875 118.241 354.586 119.603 353.381C114.669 353.554 109.787 355.034 105.588 357.631C102.301 359.664 99.1835 362.998 99.6196 366.838C102.337 364.651 105.528 363.054 108.908 362.19C109.625 362.007 110.525 361.915 110.973 362.504C111.313 362.949 111.216 363.59 110.998 364.107C109.918 366.669 106.74 367.529 104.77 369.491C104.511 369.748 104.263 370.046 104.2 370.405C104.077 371.11 104.749 371.753 105.455 371.871C106.161 371.989 106.869 371.732 107.539 371.479C108.929 370.955 110.32 370.43 111.71 369.905C112.717 369.526 113.912 369.163 114.807 369.76C115.733 370.377 115.82 371.781 115.297 372.764C114.774 373.746 113.813 374.405 112.888 375.024C110.66 376.518 108.432 378.011 106.203 379.505C104.337 380.755 102.247 382.441 102.425 384.68C102.591 386.788 104.91 388.22 107.02 388.085C109.13 387.949 110.986 386.659 112.544 385.229C114.101 383.799 115.506 382.166 117.315 381.071C118.495 380.356 120.178 379.959 121.137 380.951C121.877 381.718 121.806 382.95 121.528 383.979C120.727 386.945 118.561 389.512 115.773 390.801C118.041 391.325 120.407 391.423 122.712 391.091C124.026 390.901 125.387 390.537 126.337 389.609C127.287 388.682 127.655 387.05 126.831 386.009C125.601 384.456 125.65 382.184 126.436 380.366C127.222 378.548 128.625 377.08 130 375.654C129.606 374.842 128.456 374.787 127.596 375.057ZM138.1 378.582C139.335 375.726 139.38 372.496 139.067 369.401C138.721 365.977 137.528 362.062 134.302 360.862C129.576 362.824 125.928 367.201 124.851 372.203C124.76 372.624 124.689 373.076 124.854 373.473C125.02 373.87 125.511 374.159 125.892 373.96C127.199 373.275 128.806 372.886 130.135 373.528C131.463 374.17 132.11 376.172 131.034 377.181C129.846 378.297 128.625 379.457 127.984 380.956C127.343 382.454 127.435 384.394 128.642 385.489C129.549 386.312 129.552 387.928 128.647 388.754C131.22 388.002 133.053 385.791 134.721 383.693C135.996 382.09 137.286 380.462 138.1 378.582ZM108.485 363.814C105.809 364.924 103.211 366.223 100.718 367.698C100.125 368.049 99.5256 368.42 99.092 368.955C98.5066 369.678 98.2841 370.622 98.1032 371.535C97.5187 374.483 97.2174 377.657 98.4555 380.396C98.8507 381.27 99.3909 382.07 99.9284 382.864C100.087 383.099 100.267 383.35 100.539 383.429C100.811 383.507 101.17 383.288 101.106 383.012C100.909 382.162 101.553 381.362 102.189 380.764C105.91 377.261 110.924 375.251 114.27 371.388C113.763 370.786 112.8 371.069 112.076 371.378C110.352 372.114 108.574 372.725 106.761 373.203C105.826 373.45 104.784 373.65 103.931 373.195C102.682 372.529 102.479 370.708 103.139 369.456C103.798 368.203 105.052 367.395 106.262 366.66C107.471 365.925 108.74 365.158 109.466 363.943C109.334 363.597 108.827 363.672 108.485 363.814ZM117.643 387.28C118.826 386.329 120.104 385.209 120.233 383.697C120.3 382.907 119.793 381.94 119.003 382.016C118.761 382.039 118.539 382.159 118.33 382.284C114.891 384.338 112.627 388.356 108.748 389.354C109.844 389.845 110.987 390.231 112.157 390.506C112.505 390.588 112.867 390.66 113.218 390.587C113.625 390.503 113.966 390.234 114.29 389.973C115.408 389.075 116.526 388.178 117.643 387.28ZM120.841 354.438C120.076 355.284 119.311 356.13 118.546 356.977C117.939 357.647 117.289 358.532 117.627 359.37C117.875 359.988 118.609 360.3 119.273 360.249C119.937 360.197 120.542 359.857 121.098 359.492C123.082 358.19 124.868 356.417 127.184 355.897C125.578 355.312 123.973 354.727 122.368 354.142C122.034 354.021 121.661 353.899 121.332 354.035C121.135 354.116 120.985 354.279 120.841 354.438Z" fill="#00160A"/>
<path fill-rule="evenodd" clip-rule="evenodd" d="M150.714 253.335C150.514 257.346 147.419 261.689 143.432 261.215C141.632 259.133 140.223 256.549 138.831 253.996C136.158 249.092 133.545 244.3 128.339 243.39C123.226 242.497 118.465 246.257 115.28 250.356C110.669 256.292 107.688 263.483 106.749 270.942C106.196 275.326 107.995 281.407 112.388 280.925C117.405 280.373 120.974 284.321 124.604 288.335C127.963 292.051 131.375 295.824 136.036 296.143C141.586 296.522 146.12 299.847 150.709 303.212L150.709 303.213C153.774 305.46 156.864 307.727 160.298 309.145C166.758 311.814 174.207 311.298 180.802 308.98C187.396 306.662 193.264 302.67 198.819 298.427L199.11 298.204C202.142 295.885 205.316 293.458 209.086 292.947C228.364 290.336 246.295 279.028 256.959 262.757C272.078 274.843 293.218 278.974 311.775 273.469C314.923 272.535 318.092 271.282 320.427 268.972C322.762 266.663 324.086 263.076 322.938 259.999C321.683 256.634 317.932 254.832 314.367 254.399C312.413 254.161 310.443 254.232 308.472 254.302H308.472H308.472H308.472H308.471C306.847 254.36 305.221 254.418 303.602 254.303C293.8 253.61 285.637 246.85 278.216 240.409C288.969 237.111 297.689 228.825 303.446 219.162C309.203 209.499 312.289 198.49 314.633 187.489C315.866 181.699 316.782 175.177 313.475 170.268C311.994 168.071 309.824 166.465 307.661 164.864C305.225 163.061 302.799 161.266 301.379 158.642C298.648 153.595 293.324 150.602 288.274 147.876C275.06 140.741 259.881 133.398 245.639 138.163C240.091 140.019 235.299 143.575 230.627 147.095C222.868 152.94 214.556 159.797 213.079 169.398C200.384 163.718 183.959 168.254 175.978 179.644C174.153 182.249 172.751 185.122 171.351 187.992L171.351 187.993C169.703 191.371 168.057 194.746 165.723 197.675C156.349 193.404 146.798 189.522 137.102 186.042C132.804 184.499 127.669 183.135 123.964 185.807C120.994 187.948 120.083 192.152 120.955 195.709C121.826 199.265 124.154 202.281 126.65 204.96C132.065 210.773 138.57 215.567 145.726 219.02C145.956 219.131 146.189 219.242 146.422 219.353C148.663 220.42 150.966 221.517 152.457 223.476C154.105 225.639 154.207 229.259 151.898 230.694C148.487 232.814 147.859 237.571 148.558 241.525C148.797 242.876 149.148 244.215 149.498 245.551C150.173 248.126 150.846 250.695 150.714 253.335ZM243.31 274.481C234.715 283.505 222.622 288.784 210.256 290.328C197.891 291.871 185.264 289.865 173.451 285.895C176.629 285.893 178.926 281.733 177.236 279.042C170.726 286.631 160.801 290.186 151.344 293.431C142.8 296.363 132.588 294.234 126.312 287.737C120.036 281.24 118.337 270.58 122.751 262.698C124.669 259.273 127.923 256.291 131.835 255.954C135.747 255.618 139.96 258.862 139.597 262.772C137.42 262.393 135.129 264.242 135.039 266.45C143.461 265.543 151.378 260.717 156.044 253.647C157.654 251.207 158.878 248.55 160.103 245.889C160.925 244.103 161.748 242.316 162.688 240.593C165.03 236.305 168.392 232.216 173.051 230.742C176.79 229.56 180.832 230.216 184.697 230.882L201.866 233.843C203.151 232.733 201.07 230.955 199.409 230.608C194.042 229.487 188.602 228.796 183.16 228.105C178.114 227.464 173.068 226.824 168.081 225.84C157.715 223.794 147.297 220.054 139.752 212.657C144.87 209.713 148.764 204.711 150.361 199.027C150.684 197.877 149.914 195.988 148.98 196.733C147.914 200.422 146.757 204.271 144.084 207.029C141.411 209.787 136.719 210.999 133.694 208.632C129.766 205.561 125.637 202.21 124.083 197.472C122.53 192.733 124.987 186.37 129.939 185.789C132.162 185.528 134.335 186.447 136.385 187.346L157.065 196.411C163.22 199.108 169.466 201.833 176.115 202.812C180.783 203.5 185.531 203.307 190.245 203.112L203.61 202.561C204.157 202.539 204.717 202.513 205.221 202.298C206.563 201.726 207.019 200.086 207.315 198.656C210.902 181.349 215.72 163.085 228.757 151.15C234.59 145.81 241.857 142.049 249.586 140.372C257.204 138.719 265.61 139.205 272.169 143.418C261.166 144.228 250.482 148.868 242.379 156.355C238.974 152.721 232.638 155.692 229.923 159.866C225.713 166.337 225.79 175.326 230.109 181.724C233.744 187.11 235.092 193.536 236.443 199.978C237.685 205.897 238.93 211.829 241.955 216.978C246.74 225.124 255.652 230.352 264.959 231.973C274.266 233.594 283.915 231.901 292.76 228.584C282.86 238.459 267.045 241.874 253.952 236.965C252.997 236.607 252.048 236.207 251.098 235.807L251.098 235.807L251.098 235.807L251.097 235.807L251.097 235.807C248.089 234.54 245.07 233.269 241.843 233.307C243.734 235.309 246.148 236.812 248.779 237.624C245.746 242.719 242.563 247.726 239.237 252.635C238.811 253.263 238.326 253.932 237.598 254.145C236.787 254.381 235.939 253.977 235.2 253.568C229.084 250.188 223.602 245.665 219.122 240.302L210.159 251.204C214.759 256.826 220.136 261.811 226.09 265.972C218.166 275.762 206.16 282.138 193.611 283.221C206.6 283.883 219.75 277.79 227.644 267.454C232.641 270.259 237.891 272.615 243.31 274.481ZM284.387 178.618C287.258 175.488 288.321 171.018 288.076 166.778C287.831 162.539 286.405 158.462 284.827 154.519C288.938 154.032 293.115 155.583 296.39 158.116C299.665 160.649 302.125 164.095 304.143 167.71C306.589 172.093 308.464 176.831 309.278 181.784C311.194 193.445 307.103 205.334 301.28 215.617C300.149 217.614 298.933 219.597 297.282 221.191C295.62 222.796 293.576 223.95 291.48 224.924C282.834 228.941 272.888 230.1 263.549 228.179C269.51 223.216 273.721 216.378 276.402 209.099C279.083 201.82 280.311 194.083 281.017 186.358L281.021 186.315C281.199 184.367 281.386 182.32 282.497 180.711C282.864 180.179 283.319 179.717 283.774 179.255L283.774 179.255C283.981 179.045 284.188 178.835 284.387 178.618ZM273.599 210.793C271.027 216.81 267.041 222.335 261.638 226.028C261.006 226.46 260.326 226.877 259.565 226.966C258.893 227.045 258.22 226.86 257.575 226.656C252.982 225.206 248.641 222.636 245.694 218.826C244.625 217.443 243.752 215.918 242.973 214.353C237.301 202.956 236.746 189.128 241.485 177.313C241.711 176.749 242.035 176.115 242.632 175.997C243.403 175.844 243.995 176.633 244.428 177.289C247.969 182.654 254.589 185.37 261.01 185.651C267.431 185.932 273.748 184.107 279.837 182.049C278.727 184.763 278.445 187.719 278.165 190.647V190.647L278.165 190.65C278.129 191.018 278.094 191.385 278.057 191.752C277.405 198.263 276.172 204.775 273.599 210.793ZM272.292 154.892C275.578 154.145 279.411 153.94 281.922 156.187C282.733 156.913 283.335 157.844 283.831 158.813C286.941 164.89 285.723 172.894 280.946 177.771C275.424 183.409 266.684 184.338 258.821 183.669C256 183.429 253.098 182.995 250.689 181.506C247.573 179.579 245.727 176.185 244.021 172.943C251.597 164.476 261.213 157.411 272.292 154.892ZM298.867 257.095C297.835 259.698 296.795 262.337 296.457 265.116C296.12 267.895 296.559 270.878 298.249 273.109C284.223 273.885 269.969 269.56 258.738 261.12C262.36 255.995 265.219 250.333 267.195 244.377C267.976 242.024 270.954 241.043 273.373 241.588C275.599 242.089 277.468 243.517 279.292 244.911L279.297 244.915L279.298 244.915L279.298 244.916L279.299 244.916C279.454 245.034 279.608 245.152 279.762 245.269C285.733 249.802 292.312 253.457 298.867 257.095ZM200.85 292.641C198.638 295.132 195.994 297.199 193.293 299.149C187.656 303.219 181.509 306.919 174.658 308.101C164.616 309.834 153.768 305.503 147.681 297.332L169.582 289.162C170.107 288.966 170.65 288.768 171.208 288.799C171.524 288.817 171.828 288.908 172.132 288.998C172.335 289.059 172.538 289.119 172.744 289.158C173.447 289.292 174.157 289.175 174.869 289.057L174.87 289.057C175.313 288.984 175.757 288.911 176.202 288.898C177.841 288.849 179.348 289.598 180.839 290.339L180.839 290.339L180.844 290.342C181.22 290.529 181.596 290.716 181.973 290.889C187.78 293.56 194.476 293.127 200.85 292.641ZM169.227 198.935C169.073 198.589 169.236 198.192 169.399 197.851C173.884 188.457 179.817 179.757 186.925 172.152C191.924 179.094 195.251 187.231 196.548 195.687C196.807 197.377 196.527 199.714 194.83 199.926C186.697 200.94 178.421 200.802 170.326 199.518C169.898 199.45 169.404 199.33 169.227 198.935ZM199.86 198.355C198.186 189.149 194.709 180.273 189.685 172.378C193.937 170.14 198.964 170.103 203.77 170.118C206.805 170.128 210.118 170.235 212.431 172.2L206.431 189.903C205.413 192.908 204.381 195.997 204.51 199.168L200.717 199.229C200.582 199.231 200.443 199.232 200.318 199.18C200.015 199.054 199.919 198.679 199.86 198.355ZM248.658 243.658C249.665 241.945 250.625 240.114 250.727 238.129C255.264 240.17 260.261 241.181 265.235 241.065C266.016 241.047 265.988 242.25 265.668 242.963C264.699 245.118 263.73 247.276 262.609 249.357C261.459 251.492 260.153 253.539 258.848 255.584L255.721 260.485C255.293 261.156 254.851 261.842 254.215 262.32C252.508 263.604 250.072 262.986 248.124 262.111C244.893 260.66 241.919 258.638 239.381 256.168C242.906 252.344 246.022 248.142 248.658 243.658ZM131.321 247.894C132.824 249.409 133.807 251.352 134.765 253.26L130.254 253.903C128.752 254.118 127.211 254.344 125.883 255.079C124.59 255.794 123.594 256.94 122.717 258.128C119.048 263.098 117.015 269.254 117.003 275.431C116.998 277.661 114.361 279.253 112.203 278.687C110.045 278.122 108.579 275.978 108.206 273.779C107.833 271.579 108.358 269.33 109.017 267.199C111.336 259.698 115.484 252.614 121.621 247.718C122.793 246.782 124.089 245.906 125.57 245.67C127.678 245.333 129.817 246.378 131.321 247.894ZM320.719 260.449C321.241 261.12 321.627 261.936 321.604 262.785C321.573 263.882 320.878 264.844 320.129 265.647C315.775 270.312 309.084 271.901 302.747 272.65C302.329 272.699 301.891 272.744 301.499 272.59C301.177 272.464 300.919 272.216 300.689 271.958C299.16 270.238 298.554 267.835 298.678 265.537C298.802 263.24 299.595 261.027 300.583 258.948C300.79 258.511 301.031 258.051 301.455 257.816C301.794 257.629 302.197 257.614 302.584 257.604L310.253 257.403C312.142 257.353 314.051 257.306 315.9 257.695C317.748 258.085 319.559 258.959 320.719 260.449ZM235.24 187.979C232.115 182.189 229.776 175.974 228.31 169.559L229.572 166.187C231.134 163.163 233.104 160.349 235.41 157.846C236.349 156.827 237.977 156.714 239.273 157.205C240.57 157.696 241.613 158.673 242.619 159.626L247.147 163.917C247.282 164.044 247.422 164.182 247.467 164.362C247.552 164.701 247.272 165.011 247.019 165.251C244.898 167.267 243.014 169.541 241.503 172.046C239.22 175.834 237.826 180.078 236.45 184.281L235.24 187.979ZM246.813 155.456C256.033 150.518 266.118 145.872 276.517 146.983C281.954 147.564 287.155 149.727 291.684 152.791C278.71 149.456 264.249 152.532 253.756 160.859C252.134 162.146 249.701 163.544 248.257 162.06C247.886 161.679 247.644 161.145 247.408 160.625C247.029 159.792 246.667 158.994 245.819 158.916C245.011 158.842 244.651 157.745 244.994 157.009C245.337 156.273 246.097 155.84 246.813 155.456ZM221.485 245.775C223.305 247.523 225.309 249.067 227.308 250.607L235.386 256.828C232.898 259.02 230.464 261.273 228.087 263.584C222.428 260.23 217.377 255.854 213.25 250.73C215.509 248.378 217.677 245.938 219.749 243.419C220.074 244.349 220.775 245.092 221.485 245.775ZM169.549 228.947C165.295 232.27 160.898 235.768 158.559 240.631C158.102 241.582 157.724 242.582 157.347 243.581C156.545 245.703 155.747 247.819 154.193 249.435C153.504 249.232 153.233 248.42 153.065 247.722L151.447 240.991C151.228 240.082 151.008 239.149 151.132 238.223C151.256 237.301 151.71 236.462 152.157 235.646L156.905 226.968C157.011 226.775 157.121 226.576 157.291 226.435C157.711 226.086 158.332 226.198 158.863 226.328L169.549 228.947ZM238.644 258.758C241.544 261.74 245.149 264.032 249.08 265.394C249.815 264.703 251.235 265.084 251.525 266.051C250.173 267.806 248.688 269.459 247.087 270.991C246.372 271.675 245.227 271.531 244.263 271.31C239.552 270.228 235.015 268.396 230.874 265.903C230.597 265.736 230.285 265.499 230.313 265.177C230.331 264.96 230.502 264.792 230.662 264.644L236.475 259.29C237.085 258.729 238.066 258.164 238.644 258.758ZM312.867 183.962C312.813 184.618 312.72 185.351 312.208 185.763C312.203 180.61 310.925 175.462 308.519 170.905C308.082 170.078 307.609 169.27 307.083 168.498C307.015 168.398 306.946 168.299 306.877 168.199C306.346 167.433 305.803 166.648 305.674 165.733L311.903 172.241C312.476 172.839 313.066 173.464 313.337 174.247C313.598 175.003 313.536 175.827 313.47 176.623L312.867 183.962ZM305.709 175.693L304.299 173.914C302.746 171.958 300.842 169.822 298.345 169.819C296.896 169.818 295.563 170.56 294.306 171.281L292.353 172.401C291.819 172.707 291.271 173.025 290.895 173.512C289.81 174.915 290.602 176.966 291.627 178.413C292.336 179.415 293.187 180.377 294.316 180.859C295.776 181.482 297.455 181.207 298.986 180.784C301.082 180.206 303.107 179.372 305.003 178.307C305.609 177.966 306.278 177.467 306.248 176.773C306.23 176.364 305.964 176.013 305.709 175.693ZM293.385 177.065C293.142 176.678 292.891 176.266 292.887 175.809C292.88 174.917 293.77 174.318 294.554 173.891L297.338 172.372C297.759 172.142 298.197 171.907 298.675 171.875C299.154 171.843 299.686 172.073 299.847 172.525C300.322 173.858 301.492 174.922 302.864 175.268C303.308 175.38 303.451 175.995 303.241 176.402C303.031 176.809 302.601 177.047 302.191 177.251C300.723 177.979 299.189 178.573 297.614 179.022C296.982 179.203 296.314 179.36 295.675 179.208C294.63 178.96 293.956 177.974 293.385 177.065ZM273.578 190.811C270.817 191.132 270.291 196.111 271.574 198.767C271.838 199.313 272.251 199.876 272.852 199.952C273.882 200.083 274.45 198.813 274.678 197.801L274.683 197.777C274.983 196.444 276.323 190.491 273.578 190.811ZM259.337 197.342C259.889 196.054 260.073 194.611 259.862 193.225C259.764 192.581 259.57 191.928 259.14 191.439C258.71 190.95 257.999 190.666 257.386 190.886C256.832 191.086 256.483 191.628 256.221 192.156C255.294 194.018 254.925 196.154 255.172 198.22C255.287 199.181 256.498 199.706 257.417 199.402C258.336 199.098 258.955 198.231 259.337 197.342ZM267.477 194.394C267.906 194.039 268.447 194.684 268.621 195.213C269.192 196.951 269.666 198.721 270.037 200.513C270.272 201.645 270.467 202.821 270.216 203.95C269.863 205.542 268.653 206.836 267.25 207.665C265.846 208.495 264.248 208.924 262.673 209.344C262.257 209.455 261.734 209.534 261.465 209.197C261.237 208.912 261.35 208.464 261.61 208.207C261.864 207.955 262.219 207.838 262.56 207.726L262.58 207.72C265.036 206.913 267.66 205.457 268.232 202.937C268.546 201.551 268.163 200.158 267.779 198.76C267.43 197.487 267.078 196.208 267.251 194.926C267.278 194.73 267.325 194.52 267.477 194.394ZM250.329 188.725C249.682 187.829 250.2 186.468 251.138 185.884C252.075 185.3 253.26 185.308 254.356 185.449C255.664 185.618 256.951 185.951 258.176 186.437C258.437 186.54 258.718 186.672 258.833 186.928C259.046 187.403 258.496 187.922 257.976 187.922C257.557 187.921 257.178 187.72 256.803 187.521C256.712 187.473 256.621 187.424 256.53 187.379C254.484 186.364 251.77 186.953 250.329 188.725ZM273.915 188.416C274.887 188.254 275.919 188.479 276.736 189.03C277.077 189.261 277.566 188.873 277.568 188.461C277.57 188.049 277.263 187.702 276.939 187.448C276.242 186.899 275.373 186.57 274.487 186.52C273.915 186.488 273.282 186.599 272.914 187.037C272.545 187.476 272.656 188.299 273.208 188.452C273.405 188.507 273.612 188.47 273.816 188.433L273.816 188.433C273.849 188.427 273.882 188.422 273.915 188.416ZM261.845 213.684C262.119 213.529 262.48 213.799 262.521 214.111C262.561 214.422 262.384 214.72 262.18 214.96C261.161 216.164 259.404 216.534 257.852 216.252C256.3 215.97 254.909 215.136 253.6 214.256C252.985 213.842 252.378 213.414 251.782 212.974C251.163 212.517 250.504 211.958 250.43 211.193C250.356 210.428 251.336 209.656 251.896 210.183C253.272 211.479 254.679 212.796 256.39 213.597C258.101 214.399 260.199 214.612 261.845 213.684ZM232.388 219.819C226.656 207.36 224.265 193.383 225.529 179.727C225.55 179.494 225.58 179.244 225.734 179.067C225.951 178.818 226.398 178.829 226.603 179.088C226.53 186.6 226.46 194.157 227.686 201.568C228.912 208.98 231.516 216.313 236.27 222.129C236.412 222.303 236.556 222.475 236.7 222.648L236.7 222.648L236.7 222.649L236.701 222.649C237.519 223.63 238.343 224.619 238.807 225.801C235.716 225.742 233.68 222.628 232.388 219.819ZM238.009 163.559C237.904 163.444 237.78 163.343 237.637 163.281C237.224 163.103 236.739 163.286 236.377 163.554C234.934 164.622 234.929 167.119 236.366 168.193C237.068 167.596 237.788 166.975 238.199 166.15C238.61 165.325 238.635 164.236 238.009 163.559ZM250.449 176.716C252.004 177.978 253.776 178.972 255.663 179.641C261.755 181.801 268.6 180.445 274.478 177.758C275.376 177.348 276.522 177.564 277.208 178.274C273.434 180.964 268.81 182.442 264.176 182.441C263.154 182.441 262.133 182.371 261.115 182.282C259.032 182.1 256.933 181.833 254.973 181.103C253.013 180.374 251.184 179.139 250.074 177.367L250.449 176.716ZM316.779 258.809C316.719 259.016 316.885 259.215 317.039 259.367L319.353 261.664C319.605 261.003 319.322 260.234 318.837 259.72C318.351 259.206 317.696 258.893 317.056 258.592C316.931 258.597 316.814 258.689 316.779 258.809Z" fill="#00160A"/>
<path fill-rule="evenodd" clip-rule="evenodd" d="M468.776 169.47C471.611 170.453 474.282 167.896 476.725 166.154C480.506 163.458 485.438 162.439 489.977 163.415C490.73 163.577 491.519 163.82 492.015 164.41C492.468 164.949 492.597 165.684 492.67 166.384C493.117 170.672 492.045 175.104 489.687 178.713C488.54 180.469 487.103 182.032 486.077 183.862C485.051 185.691 484.465 187.926 485.196 189.892C489.541 201.581 487.733 215.367 480.52 225.54C473.307 235.712 460.895 241.98 448.427 241.747C442.051 241.628 435.804 239.926 429.796 237.786C427.175 236.852 424.294 235.828 421.692 236.814C416.944 238.613 411.945 239.749 406.886 240.179C405.631 240.286 404.319 240.34 403.161 239.845C401.427 239.103 400.38 237.223 400.181 235.347C399.982 233.472 400.501 231.595 401.156 229.826C403.131 224.491 409.264 216.157 412.977 214.237C412.676 207.758 412.709 201.204 414.11 194.871C415.511 188.539 418.369 182.394 423.058 177.913C424.995 176.063 427.211 174.522 429.533 173.185C441.275 166.425 455.973 165.033 468.776 169.47ZM450.894 168.944C441.915 169.154 433.174 172.761 426.155 178.365C424.094 180.01 422.157 181.838 420.61 183.974C419.391 185.657 418.427 187.515 417.621 189.432C412.84 200.802 413.932 214.464 420.457 224.932C420.599 225.16 420.762 225.402 421.016 225.491C421.33 225.6 421.667 225.441 421.96 225.284C442.455 214.362 460.697 199.236 475.225 181.117C475.571 180.685 475.935 180.184 475.86 179.636C475.804 179.225 475.511 178.891 475.224 178.591C469.025 172.092 459.873 168.734 450.894 168.944ZM463.447 236.824C473.182 232.254 480.575 223.223 483.737 212.945C484.453 210.617 484.968 208.211 485.019 205.776C485.061 203.729 484.775 201.69 484.49 199.663C484.077 196.722 483.664 193.782 483.251 190.842C483.142 190.063 482.39 189.034 481.842 189.599C466.611 205.273 449.979 219.586 432.21 232.311C431.619 232.735 430.968 233.258 430.936 233.985C430.899 234.826 431.702 235.436 432.431 235.856C441.747 241.229 453.713 241.394 463.447 236.824ZM403.402 235.627C404.11 236.763 405.645 236.996 406.983 237.033C414.003 237.227 420.948 235.17 427.229 232.029C433.509 228.887 439.194 224.685 444.718 220.349C452.086 214.566 459.234 208.506 466.2 202.245C474.827 194.49 483.305 186.266 488.969 176.143C490.065 174.184 491.076 172.037 490.905 169.8C490.733 167.563 488.949 165.304 486.706 165.391C481.949 165.577 477.27 167.407 473.649 170.498C472.928 171.112 473.437 172.421 474.324 172.754C475.211 173.087 476.199 172.756 477.065 172.374C477.931 171.991 478.833 171.544 479.774 171.649C481.212 171.809 482.233 173.28 482.319 174.725C482.405 176.169 481.766 177.557 481.014 178.792C479.621 181.079 477.802 183.072 475.965 185.019C459.629 202.325 440.785 217.26 420.205 229.211C418.352 230.287 416.477 231.343 414.482 232.127C413.436 232.538 412.237 232.869 411.215 232.398C409.541 231.627 409.407 229.276 409.909 227.503C410.664 224.84 412.293 222.433 414.485 220.743C414.07 219.573 413.655 218.404 413.24 217.234C407.828 220.69 404.031 226.569 403.105 232.923C402.972 233.84 402.911 234.841 403.402 235.627ZM418.788 227.6C418.826 227.479 418.756 227.353 418.688 227.246C417.989 226.136 417.29 225.025 416.591 223.914C416.275 223.412 415.663 222.842 415.189 223.2C413.48 224.487 412.257 226.403 411.809 228.495C411.721 228.908 411.67 229.369 411.895 229.726C412.313 230.391 413.312 230.243 414.051 229.978C415.627 229.413 417.145 228.687 418.574 227.814C418.662 227.761 418.757 227.698 418.788 227.6ZM479.599 174.728C479.529 174.439 479.185 174.314 478.889 174.301C477.988 174.262 477.047 175.002 477.104 175.902C477.161 176.802 478.498 177.368 479.057 176.661C479.226 176.447 479.297 176.175 479.365 175.911C479.431 175.65 479.498 175.389 479.564 175.127C479.598 174.996 479.631 174.859 479.599 174.728Z" fill="#00160A"/>
<defs>
<linearGradient id="paint0_linear_804_1410" x1="49.3605" y1="-306.738" x2="646.305" y2="-194.098" gradientUnits="userSpaceOnUse">
<stop stop-color="#9A4DFF"/>
<stop offset="0.982198" stop-color="#3FE7FF"/>
</linearGradient>
</defs>
</svg>
