<svg width="120" height="180" viewBox="0 0 120 180" fill="none" xmlns="http://www.w3.org/2000/svg">
<g opacity="0.2">
<path fill-rule="evenodd" clip-rule="evenodd" d="M111.944 141.93C118.244 145.35 118.244 150.93 112.034 154.35L71.354 176.67C65.054 180.09 54.884 180.09 48.584 176.67L7.63402 154.35C1.33402 150.93 1.33402 145.35 7.54402 141.93L48.224 119.61C54.524 116.19 64.694 116.19 70.994 119.61L111.944 141.93Z" fill="#606060"/>
</g>
<path fill-rule="evenodd" clip-rule="evenodd" d="M113.6 139.41V140.31C113.6 140.4 113.6 140.49 113.51 140.49C113.42 140.49 113.51 140.58 113.42 140.67C113.41 140.738 113.379 140.802 113.33 140.85C113.33 140.94 113.24 140.94 113.24 141.03C113.24 141.12 113.15 141.21 113.15 141.3C113.15 141.39 113.06 141.39 113.06 141.48C113.06 141.57 112.97 141.66 112.97 141.75C112.97 141.84 112.88 141.84 112.88 141.93C112.88 142.02 112.79 142.11 112.7 142.2C112.61 142.29 112.61 142.29 112.61 142.38C112.61 142.47 112.43 142.56 112.43 142.65L112.34 142.74C112.25 142.92 112.07 143.01 111.98 143.19L111.89 143.28C111.8 143.37 111.71 143.55 111.53 143.64L111.35 143.82C111.26 143.91 111.17 143.91 111.17 144C111.17 144.09 110.99 144.09 110.99 144.18C110.99 144.27 110.81 144.27 110.72 144.36C110.63 144.45 110.54 144.45 110.45 144.54C110.36 144.63 110.27 144.63 110.18 144.72C110.09 144.81 110 144.81 109.91 144.9C109.82 144.99 109.73 144.99 109.64 145.08C109.541 145.175 109.415 145.238 109.28 145.26L70.85 167.58C70.49 167.76 70.22 167.94 69.86 168.12C69.77 168.12 69.68 168.21 69.59 168.21C69.23 168.39 68.96 168.48 68.6 168.66C68.5503 168.66 68.51 168.7 68.51 168.75C68.1646 168.91 67.8023 169.031 67.43 169.11C67.1712 169.213 66.8978 169.273 66.62 169.29C66.4136 169.362 66.2032 169.422 65.99 169.47C65.72 169.56 65.45 169.56 65.18 169.65C64.91 169.74 64.73 169.74 64.55 169.74H64.28C63.92 169.83 63.56 169.83 63.2 169.92H62.93C62.716 169.906 62.5014 169.936 62.3 170.01C61.94 170.01 61.58 170.1 61.31 170.1H58.34C58.0965 170.115 57.8524 170.084 57.62 170.01C57.35 170.01 57.08 169.92 56.9 169.92C56.72 169.92 56.45 169.83 56.18 169.83C55.9022 169.813 55.6287 169.753 55.37 169.65C55.19 169.65 54.92 169.56 54.74 169.56C54.38 169.47 54.11 169.38 53.84 169.29C53.57 169.2 53.39 169.2 53.21 169.11C53.03 169.02 53.03 169.02 52.85 169.02C52.5357 168.939 52.2332 168.818 51.95 168.66C51.86 168.66 51.77 168.57 51.68 168.57C51.3946 168.488 51.1219 168.367 50.87 168.21C50.78 168.12 50.6 168.12 50.51 168.03L49.43 167.49L10.73 145.17C7.75998 143.46 6.22998 141.21 6.22998 138.87V143.01C6.22998 145.26 7.75998 147.51 10.73 149.31L49.43 171.63L50.51 172.17C50.6 172.26 50.78 172.26 50.87 172.35C51.14 172.44 51.32 172.53 51.59 172.62H51.68C51.77 172.62 51.86 172.71 51.95 172.71C52.2643 172.791 52.5668 172.912 52.85 173.07C52.94 173.07 53.03 173.16 53.21 173.16C53.2782 173.17 53.3414 173.201 53.39 173.25C53.48 173.25 53.66 173.34 53.75 173.34L54.65 173.61C54.7489 173.598 54.848 173.631 54.92 173.7C55.0468 173.687 55.1744 173.719 55.28 173.79C55.55 173.88 55.82 173.88 56.09 173.97C56.216 173.966 56.3406 173.998 56.45 174.06H56.81C57.08 174.06 57.35 174.15 57.53 174.15H61.22C61.5526 174.169 61.8862 174.139 62.21 174.06H63.11C63.476 174.044 63.8386 173.984 64.19 173.88H64.55C64.7016 173.859 64.8519 173.829 65 173.79C65.27 173.7 65.54 173.7 65.81 173.61C66.0164 173.538 66.2267 173.478 66.44 173.43C66.6987 173.328 66.9722 173.267 67.25 173.25C67.34 173.25 67.34 173.25 67.43 173.16C67.7443 173.079 68.0468 172.958 68.33 172.8C68.3797 172.8 68.42 172.76 68.42 172.71C68.7659 172.598 69.098 172.447 69.41 172.26C69.5 172.26 69.59 172.17 69.68 172.17C70.0201 172.009 70.3506 171.829 70.67 171.63L109.1 149.31C109.19 149.31 109.19 149.22 109.28 149.22C109.37 149.22 109.37 149.13 109.46 149.13C109.55 149.13 109.64 149.04 109.73 148.95C109.82 148.86 109.91 148.86 110 148.77C110.09 148.68 110.18 148.68 110.27 148.59C110.36 148.5 110.45 148.5 110.54 148.41C110.63 148.32 110.72 148.32 110.81 148.23C110.9 148.14 110.99 148.14 110.99 148.05C110.99 147.96 111.17 147.96 111.17 147.87L111.26 147.78L111.35 147.69L111.71 147.33L111.8 147.24C111.946 147.113 112.069 146.961 112.16 146.79L112.25 146.7C112.34 146.61 112.43 146.52 112.43 146.43C112.43 146.34 112.52 146.34 112.52 146.25C112.52 146.16 112.61 146.07 112.7 145.98C112.76 145.92 112.82 145.86 112.88 145.8C112.88 145.71 112.97 145.62 112.97 145.53C112.97 145.44 113.06 145.44 113.06 145.35C113.06 145.26 113.15 145.17 113.15 145.08V144.9C113.159 144.832 113.191 144.769 113.24 144.72C113.24 144.63 113.24 144.63 113.33 144.54C113.42 144.45 113.33 144.36 113.42 144.36V139.14C113.6 139.23 113.6 139.32 113.6 139.41Z" fill="url(#paint0_linear_269_1483)"/>
<path fill-rule="evenodd" clip-rule="evenodd" d="M109.1 132.84C115.04 136.26 115.13 141.84 109.19 145.26L70.7601 167.58C64.8201 171 55.1901 171 49.2501 167.58L10.5501 145.26C4.61006 141.84 4.52006 136.26 10.4601 132.84L48.8901 110.52C54.8301 107.1 64.4601 107.1 70.4001 110.52L109.1 132.84Z" fill="url(#paint1_linear_269_1483)"/>
<path fill-rule="evenodd" clip-rule="evenodd" d="M85.5741 138.33C84.8541 141.57 82.3341 144.63 78.1041 147.15C67.7541 153.18 51.0141 153.18 40.5741 147.15C36.2541 144.63 33.7341 141.48 33.0141 138.24C31.9341 133.65 34.4541 128.88 40.4841 125.37C50.8341 119.34 67.6641 119.34 78.0141 125.37C84.0441 128.88 86.6001 133.74 85.5741 138.33Z" fill="url(#paint2_linear_269_1483)"/>
<path fill-rule="evenodd" clip-rule="evenodd" d="M85.5739 138.33C84.8539 141.57 82.3339 144.63 78.1039 147.15C67.7539 153.18 51.0139 153.18 40.5739 147.15C36.2539 144.63 33.7339 141.48 33.0139 138.24C33.7339 135 36.2539 131.94 40.4839 129.42C50.8339 123.39 67.6639 123.39 78.0139 129.42C82.2439 131.94 84.8539 135.09 85.5739 138.33Z" fill="url(#paint3_linear_269_1483)"/>
<path fill-rule="evenodd" clip-rule="evenodd" d="M61.0942 16.7402L91.0642 36.0902L89.5342 71.7302L59.5642 52.3802L61.0942 16.7402Z" fill="url(#paint4_linear_269_1483)"/>
<path opacity="0.2" d="M59.5641 52.3804L89.5341 71.7304L57.6741 88.2004L27.7041 68.9404L59.5641 52.3804Z" fill="url(#paint5_linear_269_1483)"/>
<path opacity="0.3" d="M61.0941 16.7402L59.5641 52.3802L27.7041 68.9402L29.2341 33.2102L61.0941 16.7402Z" fill="url(#paint6_linear_269_1483)"/>
<path fill-rule="evenodd" clip-rule="evenodd" d="M62.1741 1.52979L105.014 29.1598L102.854 80.0998L59.9241 52.4698L62.1741 1.52979V1.52979Z" stroke="#B5BDFC" stroke-width="0.28"/>
<path fill-rule="evenodd" clip-rule="evenodd" d="M59.9241 52.4697L102.854 80.0997L57.3141 103.68L14.4741 76.0497L59.9241 52.4697V52.4697Z" stroke="#B5BDFC" stroke-width="0.28"/>
<path fill-rule="evenodd" clip-rule="evenodd" d="M62.1741 1.52979L59.9241 52.4698L14.4741 76.0498L16.6341 25.1098L62.1741 1.52979V1.52979Z" stroke="#B5BDFC" stroke-width="0.28"/>
<path fill-rule="evenodd" clip-rule="evenodd" d="M14.0239 77.7602C14.8689 77.7602 15.5539 77.0752 15.5539 76.2302C15.5539 75.3852 14.8689 74.7002 14.0239 74.7002C13.1789 74.7002 12.4939 75.3852 12.4939 76.2302C12.4939 77.0752 13.1789 77.7602 14.0239 77.7602Z" fill="#B6BDFC"/>
<path fill-rule="evenodd" clip-rule="evenodd" d="M16.634 26.6401C17.479 26.6401 18.164 25.9551 18.164 25.1101C18.164 24.2651 17.479 23.5801 16.634 23.5801C15.789 23.5801 15.104 24.2651 15.104 25.1101C15.104 25.9551 15.789 26.6401 16.634 26.6401Z" fill="#B6BDFC"/>
<path fill-rule="evenodd" clip-rule="evenodd" d="M59.654 53.8198C60.499 53.8198 61.184 53.1348 61.184 52.2898C61.184 51.4448 60.499 50.7598 59.654 50.7598C58.809 50.7598 58.124 51.4448 58.124 52.2898C58.124 53.1348 58.809 53.8198 59.654 53.8198Z" fill="#B6BDFC"/>
<path fill-rule="evenodd" clip-rule="evenodd" d="M102.854 81.54C103.699 81.54 104.384 80.855 104.384 80.01C104.384 79.165 103.699 78.48 102.854 78.48C102.009 78.48 101.324 79.165 101.324 80.01C101.324 80.855 102.009 81.54 102.854 81.54Z" fill="#B6BDFC"/>
<path fill-rule="evenodd" clip-rule="evenodd" d="M62.174 3.06C63.019 3.06 63.704 2.375 63.704 1.53C63.704 0.685004 63.019 0 62.174 0C61.329 0 60.644 0.685004 60.644 1.53C60.644 2.375 61.329 3.06 62.174 3.06Z" fill="#B6BDFC"/>
<path fill-rule="evenodd" clip-rule="evenodd" d="M57.134 105.3C57.979 105.3 58.664 104.615 58.664 103.77C58.664 102.925 57.979 102.24 57.134 102.24C56.289 102.24 55.604 102.925 55.604 103.77C55.604 104.615 56.289 105.3 57.134 105.3Z" fill="#B6BDFC"/>
<path fill-rule="evenodd" clip-rule="evenodd" d="M105.194 30.6899C106.039 30.6899 106.724 30.0049 106.724 29.1599C106.724 28.3149 106.039 27.6299 105.194 27.6299C104.349 27.6299 103.664 28.3149 103.664 29.1599C103.664 30.0049 104.349 30.6899 105.194 30.6899Z" fill="#B6BDFC"/>
<path fill-rule="evenodd" clip-rule="evenodd" d="M48.854 124.02C48.854 123.324 48.2899 122.76 47.594 122.76C46.8981 122.76 46.334 123.324 46.334 124.02C46.3434 124.474 46.5983 124.887 47 125.1L47.63 164.7L48.26 125.1C48.6339 124.869 48.8594 124.459 48.854 124.02Z" fill="url(#paint7_linear_269_1483)"/>
<path fill-rule="evenodd" clip-rule="evenodd" d="M61.7239 109.71C61.7239 108.666 60.8777 107.82 59.8339 107.82C58.7901 107.82 57.9439 108.666 57.9439 109.71C57.9391 110.394 58.3228 111.022 58.9339 111.33L59.8339 168.57H59.7439L60.6439 111.33C61.3187 111.083 61.7558 110.428 61.7239 109.71Z" fill="url(#paint8_linear_269_1483)"/>
<path fill-rule="evenodd" clip-rule="evenodd" d="M73.154 118.53C73.154 117.834 72.5899 117.27 71.894 117.27C71.1982 117.27 70.634 117.834 70.634 118.53C70.6362 118.977 70.8763 119.388 71.264 119.61L71.894 159.21L72.524 119.61C72.9298 119.407 73.177 118.983 73.154 118.53Z" fill="url(#paint9_linear_269_1483)"/>
<path fill-rule="evenodd" clip-rule="evenodd" d="M101.054 60.48H17.5339L32.7439 136.62C32.7594 137.134 32.8197 137.646 32.9239 138.15C33.6439 141.39 36.1639 144.54 40.4839 147.06C50.9239 153.09 67.6639 153.09 78.0139 147.06C82.2439 144.63 84.7639 141.48 85.4839 138.24C85.5884 137.706 85.6486 137.164 85.6639 136.62L101.054 60.48Z" fill="url(#paint10_linear_269_1483)"/>
<defs>
<linearGradient id="paint0_linear_269_1483" x1="5.96898" y1="174.188" x2="113.555" y2="174.188" gradientUnits="userSpaceOnUse">
<stop stop-color="#7348BF"/>
<stop offset="0.25" stop-color="#784AC1"/>
<stop offset="0.54" stop-color="#854FC8"/>
<stop offset="0.85" stop-color="#9C58D4"/>
<stop offset="1" stop-color="#AA5DDB"/>
</linearGradient>
<linearGradient id="paint1_linear_269_1483" x1="171.573" y1="190.152" x2="171.573" y2="60.8761" gradientUnits="userSpaceOnUse">
<stop stop-color="#DBA5F5"/>
<stop offset="0.19" stop-color="#DDAAF6"/>
<stop offset="0.41" stop-color="#E2B7F7"/>
<stop offset="0.65" stop-color="#EBCEFA"/>
<stop offset="0.89" stop-color="#F8EEFD"/>
<stop offset="1" stop-color="white"/>
</linearGradient>
<linearGradient id="paint2_linear_269_1483" x1="88.2032" y1="-402.75" x2="88.2032" y2="-436.383" gradientUnits="userSpaceOnUse">
<stop stop-color="#7348BF"/>
<stop offset="0.25" stop-color="#784AC1"/>
<stop offset="0.54" stop-color="#854FC8"/>
<stop offset="0.85" stop-color="#9C58D4"/>
<stop offset="1" stop-color="#AA5DDB"/>
</linearGradient>
<linearGradient id="paint3_linear_269_1483" x1="11.0447" y1="-457.65" x2="11.0447" y2="-408.492" gradientUnits="userSpaceOnUse">
<stop stop-color="#7348BF"/>
<stop offset="0.25" stop-color="#784AC1"/>
<stop offset="0.54" stop-color="#854FC8"/>
<stop offset="0.85" stop-color="#9C58D4"/>
<stop offset="1" stop-color="#AA5DDB"/>
</linearGradient>
<linearGradient id="paint4_linear_269_1483" x1="83.1591" y1="3.5733" x2="48.1844" y2="10.3874" gradientUnits="userSpaceOnUse">
<stop stop-color="#DCDCF0"/>
<stop offset="0.33" stop-color="#E1E1F2"/>
<stop offset="0.7" stop-color="#EEEEF8"/>
<stop offset="1" stop-color="white"/>
</linearGradient>
<linearGradient id="paint5_linear_269_1483" x1="57.6097" y1="36.2247" x2="27.5503" y2="88.1112" gradientUnits="userSpaceOnUse">
<stop stop-color="#CDDDF4"/>
<stop offset="1" stop-color="#CDBAFA"/>
</linearGradient>
<linearGradient id="paint6_linear_269_1483" x1="43.854" y1="-6.80328" x2="-1.98868" y2="22.5202" gradientUnits="userSpaceOnUse">
<stop stop-color="#CDDDF4"/>
<stop offset="1" stop-color="#CDBAFA"/>
</linearGradient>
<linearGradient id="paint7_linear_269_1483" x1="48.8726" y1="151.022" x2="42.4642" y2="149.514" gradientUnits="userSpaceOnUse">
<stop stop-color="white" stop-opacity="0.01"/>
<stop offset="1" stop-color="white" stop-opacity="0.8"/>
</linearGradient>
<linearGradient id="paint8_linear_269_1483" x1="59.3038" y1="-439.859" x2="49.5371" y2="-437.41" gradientUnits="userSpaceOnUse">
<stop stop-color="white" stop-opacity="0.01"/>
<stop offset="1" stop-color="white" stop-opacity="0.8"/>
</linearGradient>
<linearGradient id="paint9_linear_269_1483" x1="71.5509" y1="-433.679" x2="65.1367" y2="-432.168" gradientUnits="userSpaceOnUse">
<stop stop-color="white" stop-opacity="0.01"/>
<stop offset="1" stop-color="white" stop-opacity="0.8"/>
</linearGradient>
<linearGradient id="paint10_linear_269_1483" x1="13.6127" y1="62.388" x2="13.6127" y2="162.045" gradientUnits="userSpaceOnUse">
<stop stop-color="#DBA5F5" stop-opacity="0.01"/>
<stop offset="0.21" stop-color="#DB9CF5" stop-opacity="0.21"/>
<stop offset="0.55" stop-color="#DB84F5" stop-opacity="0.55"/>
<stop offset="0.99" stop-color="#DB5CF5" stop-opacity="0.99"/>
<stop offset="1" stop-color="#DB5BF5"/>
</linearGradient>
</defs>
</svg>
