<svg width="16" height="16" viewBox="0 0 16 16" fill="none" xmlns="http://www.w3.org/2000/svg">
<path d="M1.328 4.28599C1.26322 4.28599 1.20049 4.25243 1.16576 4.19233C1.11441 4.10274 1.14505 3.98836 1.23433 3.93701L7.76759 0.166745C7.85833 0.114805 7.97155 0.146027 8.0232 0.235608C8.07485 0.324897 8.04392 0.43928 7.95463 0.490927L1.42108 4.2609C1.39161 4.27782 1.35951 4.28599 1.328 4.28599Z" fill="white"/>
<path d="M1.32798 11.837C1.2632 11.837 1.20046 11.8038 1.16603 11.7437C1.11438 11.6541 1.14473 11.5397 1.23431 11.4881L14.2926 3.93703C14.3819 3.8848 14.4963 3.91573 14.5477 4.0056C14.5993 4.09489 14.569 4.20927 14.4791 4.26092L1.42106 11.8119C1.39188 11.8289 1.35949 11.837 1.32798 11.837Z" fill="white"/>
<path d="M14.3854 4.286C14.3542 4.286 14.3218 4.27783 14.2926 4.26091L7.76754 0.490937C7.67855 0.43929 7.64761 0.324907 7.69955 0.235326C7.75062 0.146038 7.86442 0.114816 7.95458 0.166755L14.4791 3.93702C14.5687 3.98866 14.5993 4.10305 14.5477 4.19263C14.5129 4.25245 14.4502 4.286 14.3854 4.286Z" fill="white"/>
<path d="M14.3863 11.837C14.3545 11.837 14.3224 11.8288 14.2932 11.8119L1.23431 4.26084C1.14473 4.2092 1.11438 4.09481 1.16603 4.00552C1.21739 3.91594 1.33177 3.88531 1.42106 3.93695L14.48 11.488C14.5696 11.5396 14.5999 11.654 14.5483 11.7436C14.5138 11.8034 14.4511 11.837 14.3863 11.837Z" fill="white"/>
<path d="M7.86085 15.6169C7.82933 15.6169 7.79695 15.6087 7.76777 15.5918L1.23422 11.8119C1.14464 11.7602 1.1143 11.6458 1.16623 11.5563C1.2173 11.467 1.33168 11.4363 1.42126 11.488L7.95451 15.2679C8.0441 15.3195 8.07473 15.4342 8.02309 15.5235C7.98836 15.5836 7.92563 15.6169 7.86085 15.6169Z" fill="white"/>
<path d="M7.86143 15.6168C7.79666 15.6168 7.73421 15.5835 7.69949 15.5234C7.64784 15.4341 7.67819 15.3195 7.76748 15.2678L14.2929 11.4882C14.3827 11.4357 14.4962 11.4669 14.5482 11.5562C14.6001 11.6458 14.5695 11.7602 14.4805 11.8118L7.95481 15.5917C7.92534 15.6086 7.89324 15.6168 7.86143 15.6168Z" fill="white"/>
<path d="M1.32762 11.837C1.22432 11.837 1.14087 11.7532 1.14087 11.6499V4.0989C1.14087 3.99561 1.22432 3.91187 1.32762 3.91187C1.43091 3.91187 1.51466 3.99561 1.51466 4.0989V11.6499C1.51466 11.7532 1.43091 11.837 1.32762 11.837Z" fill="white"/>
<path d="M14.3866 11.837C14.2833 11.837 14.1996 11.7532 14.1996 11.6499L14.199 4.0989C14.199 3.99561 14.2827 3.91187 14.386 3.91187C14.4893 3.91187 14.5728 3.99561 14.5728 4.0989L14.5733 11.6499C14.5733 11.7532 14.4899 11.837 14.3866 11.837Z" fill="white"/>
<path d="M7.86111 15.5952C7.75782 15.5952 7.67407 15.5115 7.67407 15.4082V0.328885C7.67407 0.22559 7.75782 0.141846 7.86111 0.141846C7.96441 0.141846 8.04815 0.22559 8.04815 0.328885V15.4082C8.04815 15.5115 7.96441 15.5952 7.86111 15.5952Z" fill="white"/>
<path d="M9.76155 1.75722C9.70611 1.75722 9.6495 1.74292 9.59756 1.71287L7.86081 0.707638L6.11793 1.71316C5.96094 1.80361 5.76077 1.74992 5.67032 1.59294C5.57986 1.43595 5.63384 1.2352 5.79083 1.14474L7.6977 0.0446839C7.79895 -0.0139666 7.92355 -0.0139666 8.02538 0.0449756L9.92583 1.14504C10.0828 1.23578 10.1362 1.43625 10.0458 1.59323C9.98477 1.69828 9.87477 1.75722 9.76155 1.75722Z" fill="white"/>
<path d="M7.86113 10.4025C7.68022 10.4025 7.53345 10.2557 7.53345 10.0745V7.87436C7.53345 7.69316 7.68022 7.54639 7.86113 7.54639C8.04204 7.54639 8.18882 7.69316 8.18882 7.87436V10.0745C8.18882 10.2557 8.04204 10.4025 7.86113 10.4025Z" fill="white"/>
<path d="M1.32764 6.62595C1.14702 6.62595 1.00024 6.47918 1.00024 6.29797V4.09873C1.00024 3.91752 1.14702 3.77075 1.32764 3.77075C1.50855 3.77075 1.65532 3.91752 1.65532 4.09873V6.29797C1.65532 6.47918 1.50855 6.62595 1.32764 6.62595Z" fill="white"/>
<path d="M14.3863 6.62595C14.2054 6.62595 14.0586 6.47918 14.0586 6.29797L14.0583 4.09873C14.0583 3.91782 14.2051 3.77075 14.386 3.77075C14.5667 3.77075 14.7134 3.91752 14.7134 4.09873L14.7137 6.29797C14.7137 6.47918 14.5669 6.62595 14.3863 6.62595Z" fill="white"/>
<path d="M14.3866 11.9778C14.2057 11.9778 14.0589 11.8313 14.0589 11.6498L14.0571 9.45053C14.0568 9.26962 14.2036 9.12256 14.3845 9.12256H14.3848C14.5657 9.12256 14.7125 9.26904 14.7125 9.45024L14.714 11.6495C14.7145 11.8307 14.5675 11.9778 14.3869 11.9778H14.3866Z" fill="white"/>
<path d="M1.32764 11.9778C1.14702 11.9778 1.00024 11.831 1.00024 11.6498V9.45053C1.00024 9.26933 1.14702 9.12256 1.32764 9.12256C1.50855 9.12256 1.65532 9.26933 1.65532 9.45053V11.6498C1.65532 11.831 1.50855 11.9778 1.32764 11.9778Z" fill="white"/>
<path d="M7.86113 3.05464C7.68022 3.05464 7.53345 2.90787 7.53345 2.72667V0.328708C7.53345 0.147504 7.68022 0.000732422 7.86113 0.000732422C8.04204 0.000732422 8.18882 0.147504 8.18882 0.328708V2.72667C8.18882 2.90787 8.04204 3.05464 7.86113 3.05464Z" fill="white"/>
<path d="M7.86113 15.7575C7.68022 15.7575 7.53345 15.6108 7.53345 15.4296V13.2303C7.53345 13.0491 7.68022 12.9023 7.86113 12.9023C8.04204 12.9023 8.18882 13.0491 8.18882 13.2303V15.4296C8.18882 15.6108 8.04204 15.7575 7.86113 15.7575Z" fill="white"/>
<path d="M7.86113 15.7576C7.80481 15.7576 7.74791 15.743 7.69714 15.7138L5.78356 14.6068C5.62687 14.516 5.57318 14.3153 5.66422 14.1586C5.75438 14.0016 5.95484 13.9482 6.11183 14.0386L7.86113 15.0509L9.5868 14.0509C9.7432 13.9601 9.94395 14.0138 10.0347 14.1705C10.1254 14.3272 10.0718 14.528 9.91506 14.6187L8.02512 15.7135C7.97493 15.743 7.91774 15.7576 7.86113 15.7576Z" fill="white"/>
<path d="M7.86119 8.2023C7.80487 8.2023 7.74826 8.18771 7.6972 8.15853L5.79033 7.05788C5.63364 6.96714 5.57995 6.76667 5.6704 6.60969C5.76144 6.45241 5.96103 6.3996 6.11801 6.48918L7.86089 7.49557L9.59765 6.48976C9.75522 6.39901 9.9548 6.45241 10.0456 6.6094C10.1363 6.76609 10.0826 6.96684 9.92592 7.05759L8.02517 8.15824C7.97499 8.18771 7.91779 8.2023 7.86119 8.2023Z" fill="white"/>
<path d="M12.4834 5.52709C12.3702 5.52709 12.2599 5.46844 12.1995 5.36311C12.1087 5.20612 12.1621 5.00566 12.3194 4.91491L14.2222 3.81456C14.3786 3.7244 14.5793 3.77779 14.6695 3.93449C14.7602 4.09176 14.7066 4.29223 14.5496 4.38297L12.6471 5.48303C12.5954 5.5128 12.5391 5.52709 12.4834 5.52709Z" fill="white"/>
<path d="M14.3854 4.42702C14.33 4.42702 14.2734 4.41272 14.222 4.38295L12.3163 3.28173C12.1596 3.19127 12.1059 2.99081 12.1961 2.83382C12.2871 2.67684 12.4879 2.62315 12.644 2.7136L14.5494 3.81483C14.7064 3.90529 14.7601 4.10575 14.6699 4.26303C14.6092 4.36807 14.4989 4.42702 14.3854 4.42702Z" fill="white"/>
<path d="M3.23145 5.52733C3.17572 5.52733 3.1194 5.51303 3.06775 5.48327L1.1638 4.38321C1.0074 4.29246 0.953418 4.092 1.04387 3.93501C1.13433 3.77803 1.33567 3.72463 1.49149 3.81479L3.39544 4.91515C3.55242 5.0056 3.60611 5.20636 3.51566 5.36334C3.45496 5.46839 3.34466 5.52733 3.23145 5.52733Z" fill="white"/>
<path d="M1.32793 4.42692C1.21471 4.42692 1.10442 4.36798 1.04372 4.26264C0.95356 4.10566 1.00725 3.90519 1.16423 3.81445L3.06643 2.71701C3.22254 2.62656 3.4233 2.68025 3.51375 2.83752C3.60421 2.99422 3.55023 3.19497 3.39354 3.28543L1.49133 4.38315C1.43969 4.41262 1.38337 4.42692 1.32793 4.42692Z" fill="white"/>
<path d="M12.4796 13.0781C12.3661 13.0781 12.2558 13.0192 12.1951 12.9138C12.1049 12.7569 12.1586 12.5561 12.3156 12.4659L14.2231 11.3656C14.3795 11.2748 14.5796 11.3288 14.6704 11.4858C14.7605 11.6431 14.7068 11.8435 14.5499 11.934L12.6427 13.0344C12.5913 13.0638 12.5347 13.0781 12.4796 13.0781Z" fill="white"/>
<path d="M14.3862 11.9781C14.3305 11.9781 14.2738 11.9638 14.2225 11.934L12.3185 10.8337C12.1618 10.7432 12.1079 10.5425 12.1986 10.3855C12.2891 10.2285 12.4904 10.1754 12.6462 10.2656L14.5502 11.3659C14.7069 11.4564 14.7606 11.6571 14.6704 11.8141C14.6097 11.9191 14.4994 11.9781 14.3862 11.9781Z" fill="white"/>
<path d="M3.23143 13.0795C3.1757 13.0795 3.11939 13.0652 3.06745 13.0355L1.1635 11.934C1.00709 11.8432 0.953404 11.6427 1.04415 11.4858C1.13432 11.3291 1.33507 11.2757 1.49176 11.3658L3.39571 12.4673C3.5527 12.5581 3.6061 12.7586 3.51535 12.9155C3.45495 13.0206 3.34465 13.0795 3.23143 13.0795Z" fill="white"/>
<path d="M1.32793 11.9781C1.21471 11.9781 1.1047 11.9195 1.04401 11.8141C0.953556 11.6574 1.00695 11.4567 1.16365 11.3662L3.0641 10.2656C3.22167 10.1748 3.42125 10.2285 3.512 10.3855C3.60275 10.5422 3.54906 10.7429 3.39236 10.8337L1.49191 11.934C1.44027 11.9638 1.38366 11.9781 1.32793 11.9781Z" fill="white"/>
</svg>
